<svg width="25.999999999999996" height="25.999999999999996" xmlns="http://www.w3.org/2000/svg">

 <g>
  <title>background</title>
  <rect fill="none" id="canvas_background" height="402" width="582" y="-1" x="-1"/>
 </g>
 <g>
  <title>Layer 1</title>
  <line stroke-linecap="undefined" stroke-linejoin="undefined" id="svg_2" y2="20.512467" x2="12.292494" y1="3.494087" x1="12.521955" stroke-width="1.5" stroke="#68c6db" fill="none"/>
  <path d="m4.529054,10.301439c-0.076488,0 -0.158797,0.008973 -0.229462,0.038243c-0.099936,0.041395 -0.191217,0.152974 -0.267704,0.229462c-0.076487,0.076487 -0.103467,0.166213 -0.191218,0.229461c-0.069374,0.050002 -0.073258,0.094643 0.191218,0.038244c0.272295,-0.058065 0.544181,-0.203914 0.688384,-0.267705c0.126102,-0.055783 0.191218,-0.114731 0.382436,-0.114731c0.076487,0 0.11473,0 0.191217,0c0.076487,0 0.207297,-0.034963 0.229462,0.038243c0.079916,0.263946 -0.505684,0.333637 -0.650141,0.458923c-0.081717,0.070872 -0.120442,0.132868 -0.152974,0.152974c-0.072743,0.044958 -0.106693,0.194217 -0.152974,0.305948c-0.032725,0.079005 -0.083652,0.122639 0,0.191217c0.106636,0.08742 0.186832,0.157933 0.229461,0.191217c0.175767,0.137235 0.305949,0.152974 0.382436,0.152974c0.076487,0 0.141216,0.045358 0.191217,0.114731c0.063248,0.087751 0.160252,0.148443 0.229462,0.267705c0.128767,0.221889 0.258916,0.410891 0.458922,0.688384c0.126495,0.175503 0.218528,0.237556 0.305948,0.344192c0.102867,0.125478 0.167202,0.129458 0.305949,0.229462c0.087751,0.063248 0.199127,0.145809 0.267705,0.229462c0.08742,0.106635 0.17756,0.214852 0.305948,0.458922c0.095879,0.182268 0.152974,0.344192 0.267704,0.458922c0.114731,0.114731 0.194962,0.146259 0.267705,0.191217c0.16266,0.100529 0.172594,0.137447 0.229461,0.229462c0.06358,0.102875 0.102479,0.23045 0.114731,0.305948c0.019372,0.119375 0.114731,0.420679 0.114731,0.611897c0,0.038242 0.038243,0.114731 0.038243,0.152973c0,0.152975 0,0.305948 0,0.458923c0,0.152973 0,0.229462 0,0.267704c0,0.152975 0.076488,0.382437 0.076488,0.53541c0,0.152975 0,0.229462 0,0.267706c0,0.076487 0,0.152973 0,0.267704c0,0.229462 -0.038244,0.650141 -0.076488,0.841358c-0.038243,0.191217 -0.060024,0.349279 -0.114731,0.497166c-0.02967,0.080204 -0.083763,0.110199 -0.152974,0.229462c-0.042922,0.073963 -0.105372,0.196266 -0.191217,0.344193c-0.06921,0.119263 -0.164011,0.339153 -0.229462,0.497166c-0.092561,0.223463 -0.18451,0.499512 -0.267704,0.726627c-0.141675,0.386763 -0.208764,0.56193 -0.229462,0.611897c-0.043907,0.105997 -0.02636,0.194286 0,0.305948c0.019648,0.083229 0.083601,0.141216 0.152975,0.191217c0.087752,0.063248 0.141216,0.160088 0.191217,0.229462c0.063248,0.087753 0.152974,0.076488 0.229462,0.076488c0.076487,0 0.184895,-0.041515 0.305948,-0.267706c0.145488,-0.271845 0.245201,-0.474375 0.382436,-0.650141c0.066568,-0.085258 0.141216,-0.121845 0.191217,-0.191217c0.063247,-0.087751 0.141243,-0.19767 0.229462,-0.344193c0.169691,-0.281841 0.256771,-0.39053 0.344192,-0.497166c0.068579,-0.083651 0.076488,-0.152973 0.114731,-0.191217c0.038243,-0.038244 0.103465,-0.089727 0.191217,-0.152975c0.069373,-0.050001 0.126088,-0.099962 0.229462,-0.191217c0.064109,-0.056593 0.292864,-0.207062 0.382435,-0.267704c0.241179,-0.163286 0.337452,-0.17157 0.420679,-0.191217c0.148882,-0.035145 0.328352,-0.054085 0.382436,0c0.027041,0.02704 -0.370678,0.50428 -0.420679,0.573652c-0.094872,0.131628 -0.202419,0.164175 -0.229462,0.191217c-0.027042,0.027042 0.276784,-0.219427 0.573654,-0.497166c0.118484,-0.110849 0.179954,-0.204456 0.267704,-0.267704c0.069374,-0.050003 0.114731,-0.152975 0.114731,-0.229462l0,-0.076487" id="svg_4" stroke-width="1.5" stroke="#68c6db" fill="none"/>
  <path d="m9.041792,20.397736c0.038244,-0.038242 0.152601,-0.068464 0.191218,-0.344191c0.042436,-0.302992 0.019051,-0.650616 0,-1.032576c-0.019145,-0.383867 -0.152974,-0.650141 -0.152974,-0.841358c0,-0.076488 -0.05684,-0.069748 -0.076488,-0.152975c-0.017573,-0.07444 -0.044377,-0.151569 -0.076487,-0.305948c-0.04737,-0.227753 -0.076488,-0.344193 -0.076488,-0.420679c0,-0.038244 0,-0.076487 0,-0.764872c0,-0.841357 -0.002519,-1.490751 -0.114731,-1.873934c-0.078246,-0.267195 -0.186856,-0.469532 -0.305948,-0.65014c-0.113372,-0.171933 -0.117809,-0.32457 -0.191217,-0.420679c-0.083698,-0.109582 -0.158625,-0.303784 -0.229462,-0.497166c-0.083195,-0.227116 -0.157263,-0.455799 -0.267704,-0.611897c-0.079641,-0.112564 -0.217704,-0.313062 -0.267705,-0.382435c-0.063248,-0.087751 -0.155498,-0.110052 -0.229461,-0.152975c-0.119261,-0.06921 -0.466249,-0.118203 -0.726627,-0.191217c-0.280437,-0.078639 -0.544319,-0.175528 -0.688384,-0.267705c-0.20627,-0.131978 -0.218197,-0.204457 -0.305948,-0.267705c-0.069374,-0.050002 -0.160088,-0.102972 -0.229462,-0.152974c-0.087751,-0.063248 -0.102973,-0.160088 -0.152974,-0.229461c-0.031624,-0.043876 -0.04703,-0.153997 -0.038243,-0.191218c0.019647,-0.083227 0.184927,-0.190988 0.535409,-0.229461c0.266107,-0.029211 0.534173,0.00447 0.803114,0.076487c0.152317,0.040787 0.337451,0.171571 0.420679,0.191218c0.03722,0.008787 0.132277,-0.011724 0.152974,0.038243c0.014635,0.035332 -0.064489,0.296468 -0.191217,0.688384c-0.048514,0.150034 -0.076487,0.305948 -0.076487,0.420679c0,0.038243 -0.012617,0.077008 0,0.229461c0.019187,0.231834 0.161069,0.33326 0.267704,0.420679c0.083652,0.068578 0.143837,0.16888 0.267705,0.229462c0.108639,0.053134 0.153104,0.073332 0.191218,0.076487c0.231834,0.019188 0.326406,0.064603 0.382435,0c0.079237,-0.091362 0.114731,-0.229461 0.114731,-0.267704c0,-0.076488 -0.169658,-0.131546 -0.420679,-0.344193c-0.247606,-0.209753 -0.503536,-0.473454 -0.65014,-0.803115c-0.113133,-0.254395 -0.210089,-0.454278 -0.229461,-0.573653c-0.012252,-0.075499 -0.002181,-0.119256 0.152974,-0.191217c0.264219,-0.122545 0.570779,-0.24035 0.841358,-0.305948c0.379029,-0.09189 0.543017,-0.058603 0.65014,-0.114731c0.169376,-0.088745 0.346238,-0.173645 0.420679,-0.191217c0.083228,-0.019648 0.232461,-0.068451 0.344193,-0.114731c0.079005,-0.032725 0.160088,-0.026485 0.229461,-0.076488c0.087751,-0.063248 0.404635,-0.083682 0.764872,-0.458922c0.095493,-0.099471 0.409746,-0.467018 0.497166,-0.573653c0.034288,-0.041825 0.114731,-0.076487 0.191218,-0.152974c0.11473,-0.114731 0.184052,-0.199127 0.267704,-0.267705c0.106635,-0.08742 0.203596,-0.172867 0.267705,-0.229461c0.103373,-0.091255 0.152974,-0.305949 0.229462,-0.42068c0.076488,-0.11473 0.09558,-0.266116 0.114731,-0.611897c0.019033,-0.343665 0.02067,-0.460969 0.038243,-0.53541c0.019648,-0.083228 0.041788,-0.113801 0,0.038244c-0.105813,0.384998 -0.297311,1.073242 -0.344192,1.223794c-0.097147,0.311978 -0.216606,0.564146 -0.305949,0.841358c-0.108158,0.335589 -0.102478,0.421667 -0.11473,0.497167c-0.019372,0.119375 -0.228601,0.479946 -0.305949,0.994332c-0.022747,0.151274 -0.09556,0.495128 -0.11473,0.764871c-0.021688,0.305179 0,0.573653 0,0.611897c0,0.114731 0,2.026909 0,2.218126c0,0.152974 0.018871,0.301304 0.038243,0.420679c0.012252,0.0755 0.020262,0.115402 0,0.420679c-0.038328,0.577459 -0.084553,1.071712 -0.038243,1.453255c0.032583,0.268454 0.013844,0.421545 0.038243,0.764872c0.01917,0.269741 0.095465,0.531883 0.114731,0.688383c0.009346,0.075914 0.01049,0.110331 0.038243,0.191217c0.063287,0.184452 0.05527,0.383915 0.076488,0.53541c0.038616,0.275726 0.172002,0.532572 0.191217,0.726627c0.011305,0.114172 0,0.229462 0,0.305948c0,0.076488 0.027042,0.125933 0,0.152975c-0.027042,0.027042 -0.283155,-0.053984 -0.458922,-0.191217c-0.213149,-0.166422 -0.370751,-0.462084 -0.458923,-0.764872c-0.033813,-0.116114 -0.038243,-0.152973 -0.038243,-0.191217c0,-0.076487 -0.042674,-0.189835 -0.076487,-0.305948c-0.044086,-0.151394 -0.048827,-0.347977 -0.114731,-0.726627c-0.054076,-0.310694 -0.160479,-0.685974 -0.267705,-1.032576c-0.082285,-0.265981 -0.209814,-0.566914 -0.229462,-0.650141c-0.017573,-0.074441 -0.05722,-0.149447 -0.076487,-0.305948c-0.028036,-0.227742 0,-0.420679 0,-0.688384c0,-0.267705 -0.036048,-0.770816 0.038243,-1.109063c0.077831,-0.354363 0.172002,-0.647303 0.191217,-0.841358c0.003768,-0.038057 0.038244,-0.114731 0.038244,-0.191217c0,-0.191218 0.020921,-0.34849 0.076487,-0.53541c0.058684,-0.19741 0.150823,-0.293216 0.229462,-0.573653c0.073014,-0.26038 0.076487,-0.497167 0.076487,-0.611897c0,-0.076488 0,-0.152974 -0.038243,-0.191218c-0.038243,-0.038243 -0.152473,-0.105442 -0.191217,-0.344192c-0.006125,-0.037749 0.007822,-0.067454 -0.344193,0.229461c-0.374368,0.315769 -0.65014,0.53541 -0.726627,0.611897c-0.076487,0.076487 -0.079558,0.129126 -0.229461,0.191217c-0.035333,0.014635 -0.087688,-0.027042 -0.114731,0c-0.027042,0.027042 -0.132277,0.141251 -0.152974,0.191217c-0.014635,0.035333 0.497628,0.149865 0.764871,0.191218c0.229891,0.035574 0.344193,0.114731 0.420679,0.191217c0.076488,0.076488 0.179954,0.204457 0.267705,0.267705c0.069373,0.050001 0.153468,0.044369 0.191217,0.038243c0.23875,-0.038744 0.382436,-0.229461 0.803115,-0.65014c0.267705,-0.267705 0.370005,-0.559122 0.497166,-0.764872c0.056868,-0.092014 0.120442,-0.132869 0.152974,-0.152974c0.072743,-0.044957 0.081491,-0.18961 0.152975,-0.420679c0.082285,-0.26598 0.175144,-0.541409 0.267705,-0.764871c0.065451,-0.158011 0.229176,-0.377763 0.191217,-0.382436c-0.156501,-0.019266 -0.133941,0.338374 -0.229462,0.688384c-0.144164,0.528246 -0.19787,0.886056 -0.267705,1.147306c-0.053185,0.198962 -0.114731,0.382436 -0.152974,0.53541c-0.038243,0.152974 -0.038243,0.267705 -0.038243,0.420679c0,0.076487 0,0.152974 0,0.191217c0,0.229462 0,0.497167 0,0.650141c0,0.114731 0,0.191217 0,0.344192c0,0.114731 0,0.191218 0,0.267705c0,0.038243 0,0.114731 0,0.191217c0,0.114731 0.018977,0.344866 0,0.611897c-0.01917,0.269743 -0.063281,0.53678 -0.038243,0.764871c0.038473,0.350482 0.0677,0.383459 0.076487,0.420679c0.019648,0.083228 0.053474,0.19456 0.114731,0.53541c0.055782,0.310391 0.041342,0.501258 0.076488,0.65014c0.019648,0.083227 0.083763,0.22493 0.152974,0.344193c0.042922,0.073963 0.046818,0.111015 0.076487,0.191217c0.054708,0.147888 0.076488,0.305948 0.076488,0.344193c0,0.191217 0.038243,0.305948 0.038243,0.458921c0,0.114731 0.007233,0.153666 0,0.191219c-0.038946,0.20223 -0.152473,0.334902 -0.191217,0.573652c-0.006126,0.03775 -0.089556,-0.264633 -0.191218,-0.726627c-0.175701,-0.79845 -0.166818,-1.148172 -0.191217,-1.491499c-0.01917,-0.269742 -0.076488,-0.458922 -0.076488,-0.535409c0,-0.076488 -0.026938,-0.191776 -0.038243,-0.305948c-0.019216,-0.194057 -0.076487,-0.229462 -0.076487,-0.458923c0,-0.267705 -0.029211,-0.498764 0,-0.764871c0.038473,-0.350482 0.190166,-0.521929 0.229461,-0.688384c0.017573,-0.074441 -0.012252,-0.153962 0,-0.229461c0.019372,-0.119375 0.076488,-0.305948 0.076488,-0.382436c0,-0.076488 0.038243,-0.229462 0.038243,-0.344192c0,-0.114731 0,-0.191218 0,-0.229462l0,-0.038243" id="svg_5" stroke-width="1.5" stroke="#68c6db" fill="none"/>
  <path d="m8.888818,12.443078c-0.191217,-0.114731 -0.267705,-0.114731 -0.344192,-0.114731c-0.076488,0 -0.114731,0 -0.191217,0c-0.038244,0 -0.191218,-0.114731 -0.267705,-0.191217l-0.038244,-0.038243l-0.038243,0" id="svg_6" stroke-width="1.5" stroke="#68c6db" fill="none"/>
  <path stroke="null" d="m13.019121,4.870855c0,-0.038243 0.128933,0.219776 0.229462,0.382435c0.089916,0.145487 0.123318,0.302734 0.191217,0.497166c0.131639,0.37695 0.222754,0.614243 0.305948,0.841358c0.070837,0.193382 0.157523,0.428917 0.229462,0.65014c0.052891,0.162647 0.09795,0.426054 0.191217,0.688384c0.097568,0.274426 0.191218,0.611897 0.229462,0.688384c0.038243,0.076488 -0.000001,0.191218 0.038243,0.191218c0.038244,0 0,-0.114731 -0.114731,-0.267705l-0.076487,-0.076488" id="svg_7" fill-opacity="null" stroke-opacity="null" stroke-width="null" fill="none"/>
  <path d="m14.969543,7.241955c0,-0.038243 -0.458922,-0.420679 -0.803115,-0.726627c-0.344192,-0.305948 -0.535409,-0.497166 -0.65014,-0.573653c-0.114731,-0.076487 -0.243689,-0.129458 -0.382436,-0.229461c-0.131627,-0.094872 -0.217703,-0.236575 -0.267705,-0.305948c-0.031624,-0.043876 -0.076487,-0.114731 -0.076487,-0.152975c0,-0.11473 -0.042881,-0.347649 0,-0.611897c0.019372,-0.119375 0.062802,-0.282827 0.114731,-0.267705c0.338527,0.09858 0.196817,0.993423 0.305948,1.682716c0.120944,0.763913 0.549789,1.905933 0.726627,2.332857c0.125043,0.30188 0.152974,0.497166 0.191217,0.65014l0.038243,0.114731l0.038244,0.076488l0,0.038243" id="svg_8" fill-opacity="null" stroke-opacity="null" stroke-width="null" stroke="null" fill="none"/>
  <path d="m13.325069,5.788701c0.152975,0.152974 0.242733,0.564599 0.497167,1.032576c0.248462,0.456993 0.5321,0.880888 0.726627,1.376768c0.075211,0.191724 0.130749,0.398455 0.191217,0.458923c0.060469,0.060469 0.114731,0.11473 0.152974,0.267704l0.038244,0.076488l0.038243,0.076488l0,0.038243" id="svg_9" stroke-opacity="0" stroke-width="null" stroke="#68c6db" fill="#68c6db"/>
  <path d="m17.493616,11.869425c-0.038242,0 -0.076981,-0.006126 -0.114731,0c-0.358124,0.058116 -0.667175,0.208351 -0.956087,0.458922c-0.204294,0.177182 -0.252996,0.237561 -0.229462,0.267705c0.291119,0.372857 1.339211,-0.05503 2.065151,-0.191217c0.150352,-0.028206 0.039581,0.093026 -0.420679,0.917845c-0.08334,0.149351 -0.076487,0.229462 0,0.229462c0.038244,0 0.076487,0 -0.305948,0.382436l-0.344193,0.305948l-0.152973,0.229461" id="svg_10" stroke-opacity="0" stroke-width="null" stroke="#68c6db" fill="none"/>
  <path d="m15.887387,8.809941c-0.038243,0.076487 -0.655024,0.838288 -1.032576,1.682715c-0.296176,0.662423 -0.407203,1.211206 -0.229461,1.415011c0.182996,0.209829 0.573653,0.114731 1.18555,0.038244l0.535409,-0.267705l0.344193,-0.152974l0.038244,-0.038244" id="svg_11" stroke-width="null" stroke="#68c6db" fill="#68c6db"/>
  <path d="m18.105515,11.295772c0.076487,0.076488 0.693983,0.116311 1.376766,0c0.502989,-0.085683 0.519218,-0.136598 0.305948,0.038243c-0.083651,0.068578 -0.114729,0.076488 0.038244,-0.076487c0.114731,-0.114731 0.130419,-0.136131 -0.114731,0.076487c-0.144455,0.125286 -0.072851,0.116728 -0.191217,-0.038243c-0.155722,-0.203878 -0.619827,-0.128963 -1.109062,0.152974c-0.505787,0.291477 -0.917368,0.644457 -1.338526,0.611897c-0.314426,-0.024309 -0.40477,-0.185085 -0.611897,-0.267705c-0.327494,-0.130632 -0.619805,-0.222297 -0.688383,-0.305948c-0.08742,-0.106635 -0.114731,-0.152974 -0.114731,-0.191217c0,-0.114731 -0.083764,-0.186687 -0.152974,-0.305948c-0.042922,-0.073963 -0.1102,-0.236738 -0.229462,-0.305948c-0.073962,-0.042922 -0.191217,-0.076488 -0.267705,-0.114731l-0.038243,0l-0.076488,0" id="svg_12" stroke-width="null" stroke="#68c6db" fill="#68c6db"/>
  <path d="m13.325069,4.909099c0.229462,0.497167 0.600814,1.212477 0.956089,2.103395c0.331612,0.831578 0.763527,2.05498 0.841358,2.409344c0.074291,0.338247 0.152601,0.603875 0.191217,0.879601c0.026522,0.189369 -0.004217,0.234396 -0.497166,-0.191217c-1.620253,-1.398932 -2.296908,-2.351523 -2.447587,-2.715292c-0.106545,-0.257224 -0.193568,-0.496841 -0.229462,-0.764871c-0.040925,-0.305602 -0.038243,-0.573653 -0.038243,-0.764871c0,-0.191218 0,-0.267705 0,-0.344192c0,-0.152974 -0.05854,-0.355836 0,-0.497166c0.041394,-0.099935 0.08188,-0.117865 0.191217,0.076487c0.402608,0.715648 0.744255,1.445246 1.223794,2.524075c0.675139,1.518875 0.656372,1.567141 0.611897,1.262037c-0.067111,-0.460387 -0.090893,-0.760561 -0.152974,-0.994332c-0.050052,-0.188471 -0.076487,-0.344192 -0.076487,-0.382435c0,-0.038244 -0.031383,-0.074561 0.038243,0.803114c0.079155,0.997795 0.219399,1.762723 0.344192,2.103395c0.070838,0.193381 0.182167,0.263051 0.076488,-0.305948c-0.330298,-1.77839 -0.548715,-2.957663 -0.688384,-3.480163c-0.053185,-0.198962 -0.076488,-0.305949 -0.076488,-0.382436l-0.038243,-0.076487l0,-0.038243" id="svg_13" stroke-width="null" stroke="#68c6db" fill="none"/>
  <path d="m13.21034,3.914767c0.152974,0.191217 0.284867,0.452201 0.382435,0.726627c0.093267,0.262331 0.248314,0.812064 0.344193,0.994332c0.064194,0.122035 0.076487,0.191217 0.076487,0.267705c0,0.191217 0.023413,0.348038 -0.038243,0.65014c-0.055675,0.272793 -0.152974,0.420679 -0.191217,0.497166c-0.038244,0.076487 -0.076487,0.152975 -0.152974,0.229461c-0.038244,0.038244 -0.039601,-0.019285 -0.152974,-0.191218c-0.029774,-0.045152 -0.076488,-0.11473 -0.076488,-0.344192c0,-0.305948 -0.038243,-0.65014 -0.038243,-0.879601c0,-0.229461 0,-0.458922 0,-0.611897c0,-0.076487 0.041351,-0.204414 -0.038244,-0.382435c-0.078049,-0.174563 -0.223366,-0.222998 -0.11473,0.573653c0.11658,0.854902 0.362682,1.533137 0.497166,2.25637c0.100102,0.538337 0.176417,0.998029 0.229462,1.376768c0.038616,0.275725 0.152271,0.486152 0.191217,0.688383c0.014464,0.075108 0,0.152974 0,0.229462c0,0.076488 0.017573,0.155021 0,0.229462c-0.019648,0.083227 -0.114731,0.152974 -0.152974,0.191217c-0.038243,0.038243 -0.104598,-0.065282 -0.382436,-0.803115c-0.170473,-0.452714 -0.152974,-0.764871 -0.229461,-0.764871c-0.191217,0 -0.038244,0.611897 -0.038244,1.032576c0,0.53541 0.093651,1.140585 0.191218,1.415011c0.093267,0.262331 0.09556,0.533372 0.114731,0.803115c0.018978,0.267032 0.018978,0.574327 0,0.841358c-0.019171,0.269742 -0.019171,0.648102 0,0.917845c0.021688,0.305179 0.011742,0.688609 0,0.994332c-0.019136,0.498268 -0.034053,0.882559 -0.076488,1.18555c-0.038616,0.275726 -0.066486,0.580868 -0.152974,0.994333c-0.024761,0.118374 -0.33311,1.148947 -0.344192,1.185549c-0.039958,0.131973 -0.076488,0.191219 -0.076488,0.305948c0,0.038244 -0.038243,0.152975 -0.038243,0.229462c0,0.229462 -0.001969,0.508589 0.038243,0.573654c0.044958,0.072742 0.118474,0.146259 0.191217,0.191217c0.065064,0.040213 0.193224,0.032709 0.458923,0c0.313002,-0.038532 0.607252,-0.210089 0.726627,-0.229462c0.188748,-0.03063 0.458922,0 0.65014,0c0.038244,0 0.182081,0.05415 0.305948,0.114731c0.217278,0.106268 0.462268,0.183336 0.650141,0.267704c0.156021,0.070065 0.376726,0.172937 0.879602,0.30595c0.340864,0.09016 0.642836,0.20351 0.76487,0.267704c0.182268,0.095879 0.237556,0.14204 0.344193,0.229462c0.083651,0.068579 0.196833,0.185987 0.267704,0.267704c0.125286,0.144457 0.277517,0.39225 0.458923,0.573654c0.060469,0.060467 0.12797,0.103468 0.191217,0.191217c0.050001,0.069374 0.095083,0.146233 0.114731,0.229462c0.02636,0.111662 0,0.152973 0,0.22946c0,0.076488 0.013723,0.131926 -0.152973,0.038244c-0.179539,-0.100899 -0.514894,-0.218946 -0.764872,-0.382435c-0.143137,-0.093613 -0.382435,-0.267706 -0.458923,-0.344193c-0.076487,-0.076487 -0.177401,-0.131672 -0.267704,-0.191217c-0.171934,-0.113373 -0.347803,-0.145224 -0.764872,-0.344193c-0.077181,-0.036821 -0.270773,-0.126614 -0.382435,-0.152973c-0.166456,-0.039295 -0.235553,-0.138086 -0.344193,-0.191219c-0.123868,-0.060581 -0.204776,-0.171556 -0.267705,-0.22946c-0.151554,-0.13945 -0.267705,-0.152975 -0.344192,-0.191217c-0.076488,-0.038244 -0.155499,-0.110052 -0.229462,-0.152975c-0.119262,-0.06921 -0.217703,-0.121843 -0.267705,-0.191217c-0.094872,-0.131626 -0.251126,-0.119875 -0.382435,-0.229462c-0.146809,-0.122522 -0.229237,-0.249311 -0.344193,-0.53541c-0.176367,-0.438938 -0.152974,-0.764872 -0.152974,-1.032576c0,-0.305948 0.038244,-0.611897 0.038244,-0.994331c0,-0.382437 0,-0.726629 0,-1.109064c0,-0.611897 0,-1.032576 0,-1.529742c0,-0.344192 -0.019553,-0.727774 -0.038244,-0.879601c-0.038532,-0.313002 -0.101087,-0.528628 -0.152974,-0.764871c-0.074292,-0.338247 -0.062469,-0.536269 -0.076487,-0.650141c-0.019266,-0.156501 -0.038244,-0.305948 -0.076488,-0.573653c-0.038243,-0.267705 -0.076487,-0.344192 -0.076487,-0.420679c0,-0.076487 -0.017275,-0.310793 0.076487,-0.611897c0.097147,-0.311977 0.137832,-0.429342 0.191217,-0.420679c0.084412,0.013698 0.17699,0.646753 0.267705,1.376768c0.052091,0.419189 0.038244,0.841358 0.038244,1.223793c0,0.382436 -0.025099,0.804703 -0.114731,1.491499c-0.100089,0.766924 -0.112928,1.382187 -0.038243,1.759203c0.077586,0.391663 0.191217,0.688385 0.229461,0.994333c0.038243,0.305948 0.152974,0.458921 0.152974,0.535408c0,0.076488 0.01529,0.120621 0.038243,0.038244c0.257441,-0.923948 0.042976,-2.607825 -0.191217,-3.862598c-0.064691,-0.346602 -0.076487,-0.917845 -0.076487,-1.338524c0,-0.497167 0.09748,-0.834246 0.152974,-1.032577c0.062682,-0.224022 -0.008633,-0.467149 0.076487,-0.458922c0.711135,0.068728 0.296,1.837338 0.497167,3.02124c0.182219,1.072388 0.316311,1.986571 0.535409,3.097729c0.120438,0.6108 0.267574,0.989586 0.305949,1.453255c0.006309,0.076225 -0.012862,0.202066 0.076487,0.497166c0.02478,0.081846 0.091288,0.347889 0.038243,0.726627c-0.038616,0.275724 -0.118473,0.413965 -0.191217,0.458923c-0.032532,0.020105 -0.253191,-0.192579 -0.688384,-0.994333c-0.179685,-0.331034 -0.248489,-0.609058 -0.267705,-0.803114c-0.011306,-0.114172 0.000001,-0.267706 -0.038243,-0.267706c-0.114731,0 0.133341,0.485661 0.191217,0.917847c0.005076,0.037905 0.006326,0.072771 -0.152974,-0.191219c-0.257621,-0.426929 -0.404839,-0.76487 -0.458922,-0.76487c-0.108169,0 -0.168713,0.3214 -0.305948,0.497166c-0.066569,0.085258 -0.070827,0.161709 -0.114731,0.267704c-0.020697,0.049969 -0.105944,0.153997 -0.114731,0.191219c-0.019648,0.083227 -0.095082,0.184477 -0.11473,0.267704c-0.008787,0.037222 -0.011724,0.094032 0.038243,0.114731c0.176661,0.073177 0.735606,0.02804 1.491498,-0.229462c1.317724,-0.448895 1.71294,-0.649767 1.988665,-0.688383c0.037874,-0.005304 0.103006,-0.017546 0.152975,-0.038244c0.070663,-0.02927 0.286989,-0.022718 0.458921,-0.114731c0.047686,-0.02552 0.176582,-0.111818 0.191217,-0.076487c0.041395,0.099934 -0.178719,0.208374 -0.803114,0.650141c-0.112564,0.079641 -0.191217,0.114731 -0.191217,0.152973l0,0.038244" id="svg_14" stroke-width="null" stroke="#68c6db" fill="none"/>
  <path d="m22.69474,10.722118c0.038242,0 0.011759,0.0836 -0.038244,0.152974c-0.094872,0.131627 -0.201071,0.182145 -0.305948,0.305948c-0.212646,0.251021 -0.398626,0.437056 -0.611897,0.611897c-0.209129,0.171445 -0.289043,0.328286 -0.53541,0.497167c-0.324764,0.222621 -0.478891,0.299516 -0.726627,0.420679c-0.217279,0.106267 -0.428774,0.142041 -0.53541,0.229462c-0.083651,0.068578 -0.215738,0.212266 -0.382435,0.305948c-0.179539,0.1009 -0.715364,0.50881 -1.07082,0.841358c-0.296869,0.277738 -0.641069,0.545262 -0.764872,0.65014c-0.25102,0.212646 -0.334358,0.280883 -0.53541,0.420679c-0.366173,0.254609 -0.782852,0.532047 -1.223793,0.764872c-0.257555,0.135993 -0.497166,0.229459 -0.650141,0.305947c-0.152975,0.076488 -0.303141,0.112116 -0.267704,0.152975c0.250574,0.28891 1.075603,-0.608249 1.912176,-1.109063c0.610359,-0.365393 0.958256,-0.646987 1.07082,-0.726627c0.156099,-0.110442 0.411617,-0.244016 0.650141,-0.382436c0.147926,-0.085845 0.236576,-0.141216 0.305948,-0.191217c0.087751,-0.063248 0.114731,-0.076487 0.152975,-0.114731c0.038242,-0.038243 0.114731,-0.114731 0.191217,-0.191217c0.114731,-0.114731 0.152973,-0.229463 0.191217,-0.191218c0.267704,0.267704 -0.514833,0.553125 -0.917845,0.917846c-0.160404,0.145164 -0.37188,0.429198 -0.497166,0.573653c-0.070873,0.081717 -0.136425,0.20205 -0.191219,0.267705c-0.122522,0.146807 -0.344191,0.229461 -0.420679,0.305948c-0.076487,0.076487 -0.203074,0.127637 -0.305948,0.191217c-0.184027,0.113735 -0.344755,0.360172 -0.76487,0.611897c-0.24984,0.149698 -0.367668,0.164333 -0.458923,0.267706c-0.056594,0.064108 -0.222297,0.160883 -0.305948,0.229462c-0.106635,0.087421 -0.180661,0.123247 -0.305948,0.267704c-0.070872,0.081717 -0.130749,0.168993 -0.191218,0.229462c-0.060468,0.060467 -0.166213,0.103468 -0.229461,0.191217c-0.050002,0.069374 -0.092392,0.143837 -0.152974,0.267704c-0.053134,0.108639 -0.060024,0.158062 -0.114731,0.305948c-0.029669,0.080204 -0.152974,0.191219 -0.152974,0.267706c0,0.038244 0.326665,-0.163193 0.956089,-0.650141c0.515107,-0.398508 1.155867,-0.960449 1.338524,-1.262037c0.106689,-0.176157 0.142941,-0.315025 0.420679,-0.611897c0.258648,-0.276464 0.569122,-0.657417 0.688383,-0.726627c0.147926,-0.085845 0.186157,-0.185375 0.229462,-0.152974c0.383678,0.287079 -0.623577,0.984765 -1.185551,1.682715c-0.54693,0.679266 -0.726627,0.917847 -0.841356,1.147306c-0.114731,0.229462 -0.304612,0.574667 -0.42068,0.726627c-0.264677,0.346527 -0.44285,0.617897 -0.53541,0.841358c-0.032725,0.079006 0.017917,0.014345 0.688384,-0.841358c0.471739,-0.602072 0.844387,-1.030241 1.109062,-1.376766c0.232136,-0.303925 0.360012,-0.406349 0.497168,-0.573654c0.08742,-0.106636 0.180285,-0.275799 0.267704,-0.382435c0.068577,-0.083652 0.122801,-0.110121 -0.076487,0.229462c-0.478071,0.814625 -1.376781,2.458738 -1.529741,2.715292c-0.105465,0.176895 -0.144188,0.268726 -0.152975,0.305948c-0.019648,0.083227 -0.033505,0.224047 -0.076488,0.191217c-0.490063,-0.374308 0.887002,-1.624117 1.18555,-2.103395c0.173943,-0.279242 0.27482,-0.447165 0.344193,-0.497166c0.131628,-0.094872 0.148874,-0.296318 0.229462,-0.267706c0.332268,0.117968 -0.231079,0.9174 -0.53541,2.026909c-0.230688,0.841022 -0.363266,1.527704 -0.382435,1.797447c-0.008133,0.114443 0.038956,0.091389 0.344191,-0.764872c0.483389,-1.356022 0.527596,-1.992149 0.650141,-2.256369c0.03598,-0.077579 0.011885,-0.156044 0.038244,-0.267706c0.019648,-0.083227 0.076487,-0.152973 0.076487,0.076487c0,0.497168 0,1.415012 0,1.873934c0,0.267706 0.076487,0.382437 0.114731,0.420679c0.038244,0.038244 0.209835,-0.288523 0.344193,-1.83569c0.003309,-0.038101 0.038242,-0.038244 0.038242,0.076487c0,0.420679 -0.101032,1.239935 0.076488,2.026909c0.098499,0.436657 0.207235,0.551428 0.267704,0.611897c0.060469,0.060469 0.114731,0.114731 0.191217,0.191217c0.076487,0.076487 0.141251,0.173672 0.191217,0.152975c0.24733,-0.102444 -0.130733,-0.658794 -0.22946,-0.879602c-0.125851,-0.281475 -0.213932,-0.582363 -0.420679,-0.764872c-0.06411,-0.056595 -0.147745,-0.120344 -0.229462,-0.191217c-0.144457,-0.125288 -0.349195,-0.342583 -0.420679,-0.573652c-0.082285,-0.265982 -0.205208,-0.531488 -0.305948,-0.917845c-0.088961,-0.341181 -0.120052,-0.534422 -0.152975,-0.726627c-0.045656,-0.266542 -0.095543,-0.418306 -0.114731,-0.650141c-0.012617,-0.152454 -0.059237,-0.375322 -0.114731,-0.573654c-0.062683,-0.224022 -0.096846,-0.390042 -0.152973,-0.497166c-0.088745,-0.169377 -0.157978,-0.304341 -0.229462,-0.53541c-0.082285,-0.26598 -0.137447,-0.554697 -0.229462,-0.726627c-0.051041,-0.095369 -0.125092,-0.149286 -0.229462,-0.458922c-0.127535,-0.378358 -0.177643,-0.539666 -0.267704,-0.803115c-0.06662,-0.194875 -0.155725,-0.418892 -0.229462,-0.53541c-0.119246,-0.188434 -0.158492,-0.30343 -0.191217,-0.382435c-0.04628,-0.111732 -0.08291,-0.188171 -0.152974,-0.344193c-0.084368,-0.187874 -0.09889,-0.328351 -0.152974,-0.382435c-0.027042,-0.027042 -0.152863,0.875216 -0.191217,1.376767c-0.02916,0.381323 0.076487,0.688384 0.152974,0.956089c0.076487,0.267705 0.185438,0.613678 0.305948,0.994332c0.073003,0.230594 0.201085,0.455265 0.267705,0.650141c0.090061,0.263448 0.235111,0.571489 0.305948,0.764871c0.041597,0.113558 0.057116,0.186573 0.076487,0.305948c0.012251,0.0755 -0.281424,-0.759582 -0.688383,-1.83569c-0.158339,-0.41869 -0.352302,-0.689165 -0.994332,-0.53541c-0.894155,0.214135 -1.11758,0.371881 -1.262037,0.497167c-0.081717,0.070872 -0.12135,0.109098 -0.152974,0.152974c-0.050002,0.069374 -0.191217,0.382436 -0.267705,0.650141c-0.076487,0.267704 -0.208177,0.531135 -0.267705,0.803114c-0.10755,0.491383 -0.076488,0.573654 -0.076488,0.650141c0,0.038244 0.018872,0.148329 0.038244,0.267704c0.012252,0.0755 0.0231,0.161638 0.076487,0.152975c0.253234,-0.041092 0.246625,-0.605175 0.344193,-0.879601c0.093267,-0.262331 0.209724,-0.714022 0.267704,-1.109063c0.044428,-0.302706 0.038244,-0.650141 0.038244,-0.879601c0,-0.076488 0.011201,-0.164176 0.038243,-0.191218c0.027042,-0.027042 0.188225,0.133833 0.611897,0.956089c0.5016,0.9735 0.707179,1.425369 0.917846,1.797447c0.245677,0.433912 0.429141,0.700565 0.535409,0.917845c0.060582,0.123869 0.142042,0.199312 0.229462,0.305948c0.034288,0.041826 0.094034,0.103006 0.114731,0.152975c0.02927,0.070665 0,0.114731 0,0.22946c0,0.038244 0.004644,0.09536 -0.114731,0.114731c-0.075499,0.012251 -0.305948,-0.152973 -0.573653,-0.420679c-0.191217,-0.191217 -0.258919,-0.306971 -0.267705,-0.344191c-0.019648,-0.083229 -0.038243,-0.191219 -0.076487,-0.305948l0,-0.076488" id="svg_15" stroke-width="null" stroke="#68c6db" fill="none"/>
  <path d="m16.002119,9.498324c0.152973,0.076488 0.3214,0.168715 0.497166,0.305949c0.085258,0.066568 0.222721,0.17157 0.305948,0.191217c0.07444,0.017573 0.155884,0.023608 0.191217,0.038243c0.099936,0.041395 0.146235,0.095083 0.229462,0.114731c0.07444,0.017573 0.147341,0.044863 0.191217,0.076488c0.069372,0.050001 0.152975,0.076486 0.267706,0.11473c0.114729,0.038243 0.227295,0.12038 0.420679,0.191218c0.113556,0.041596 0.303576,0.133787 0.535408,0.152974c0.152454,0.012617 0.344193,0.038243 0.573654,0.038243c0.191217,0 0.306469,-0.012617 0.458923,0c0.231833,0.019187 0.420677,0.038243 0.650139,0.038243c0.038244,0 0.114731,0 0.191217,0c0.152975,0 0.191219,0 0.229462,0c0.076488,0 0.152975,0 0.229462,0c0.076487,0 0.185585,0.006619 0.229462,0.038243c0.138746,0.100002 0.229462,0.114731 0.305948,0.152975c0.076487,0.038243 0.184477,0.095082 0.267704,0.11473c0.186104,0.043933 0.229462,0.038244 0.267706,0.038244c0.038242,0 0.076487,0 0.114731,0c0.076487,0 0.114731,0 0.152973,0c0.038244,0 0.173645,-0.150928 0.191217,-0.076488c0.039295,0.166454 -0.487314,0.292139 -0.841358,0.420679c-0.261702,0.095014 -0.423157,0.146318 -0.841356,0.305948c-0.19241,0.073444 -0.445152,0.180097 -0.726629,0.305948c-0.220806,0.098725 -0.337679,0.163785 -0.458921,0.229462c-0.256096,0.138725 -0.390856,0.183372 -0.497166,0.305948c-0.125286,0.144456 -0.212912,0.240294 -0.267706,0.305948c-0.122522,0.146807 -0.299744,0.261499 -0.420679,0.382436c-0.060469,0.060468 -0.114731,0.114731 -0.191217,0.191217c-0.076487,0.076488 -0.176449,0.126089 -0.267704,0.229462c-0.056595,0.064109 -0.114731,0.152974 -0.152975,0.229462c-0.038244,0.076487 -0.076487,0.152974 -0.152973,0.229461c-0.076488,0.076488 -0.060646,0.175377 -0.114731,0.229462c-0.027042,0.027042 -0.090895,-0.033934 -0.152975,-0.267705c-0.100101,-0.376945 -0.185419,-0.651866 -0.267704,-0.917846c-0.071486,-0.231069 -0.139545,-0.389922 -0.229462,-0.535409c-0.100529,-0.16266 -0.229462,-0.344193 -0.305948,-0.497167c-0.076487,-0.152974 -0.202106,-0.456048 -0.267706,-0.726627c-0.09189,-0.379029 -0.06468,-0.652886 -0.114731,-0.841358c-0.06208,-0.233769 -0.076487,-0.382435 -0.076487,-0.420679c0,-0.038243 -0.056953,0.073274 -0.152973,0.688384c-0.09511,0.60928 -0.076488,1.223794 -0.076488,1.529742c0,0.344192 0,0.611897 0,0.841358c0,0.267705 0.057328,0.533625 0.076488,0.841358c0.011883,0.190848 0.047216,0.426501 0.076487,0.497166c0.020699,0.049968 0.049109,-0.04337 0.191217,-0.726627c0.160543,-0.771892 0.271303,-1.461849 0.382435,-1.83569c0.117369,-0.39482 0.210293,-0.648103 0.229462,-0.917845c0.018976,-0.267032 -0.018377,-0.460403 0,-0.573653c0.019373,-0.119375 0.038984,-0.183718 0.076487,-0.191218c0.487513,-0.097503 0.395151,1.421249 0.650141,2.409344c0.069571,0.269586 0.114731,0.344193 0.114731,0.267705c0,-0.726627 0.108538,-1.614413 0.038244,-1.912177c-0.019648,-0.083228 -0.059223,-0.11377 -0.038244,0.114731c0.09601,1.045733 0.305948,1.797446 0.420679,2.256369c0.038244,0.152974 0.038242,0.229462 0.076487,0.229462c0.076487,0 -0.076487,-0.879601 -0.076487,-1.72096c0,-0.420679 -0.076031,-0.641795 0,-0.650141c0.350483,-0.038473 0.152977,0.688383 0.267706,0.917846c0.038242,0.076487 0.060951,-0.2968 0.344191,-1.032576c0.233564,-0.606737 0.370712,-0.747325 0.420679,-0.726628c0.105997,0.043904 0.064804,0.576814 0.152975,0.879602c0.067625,0.232227 0.098888,0.305947 0.152973,0.305948c0.054085,0.000001 0.167097,-0.361507 0.458923,-0.573653c0.127542,-0.092717 0.235172,-0.05835 0.267704,-0.038244c0.145489,0.089916 0.180286,0.352288 0.267706,0.458923c0.068577,0.083652 0.103798,0.068391 0.191217,-0.038244c0.102867,-0.125477 0.191217,-0.191217 0.229462,-0.191217c0.038242,0 0.141249,-0.094033 0.191217,-0.114731c0.035334,-0.014635 0.071955,-0.083763 0.191217,-0.152974c0.073963,-0.042922 0.103006,-0.05579 0.152975,-0.076487c0.035332,-0.014634 0.152973,-0.038244 0.191217,-0.038244c0.076487,0 0.148329,-0.018871 0.267704,-0.038243c0.0755,-0.012252 0.148331,-0.018871 0.267706,-0.038243c0.113249,-0.018377 0.152973,0 0.229462,0c0.038242,0 0.076487,0 0.114729,0.038243l0,0.038243" id="svg_16" stroke-width="null" stroke="#68c6db" fill="none"/>
  <path d="m19.214577,10.722118c-0.038244,0.152974 -0.172079,0.840165 -0.191217,1.300281c-0.012714,0.305684 0,0.497167 0,0.53541c0,0.038243 0,0.114731 0,0.152974l0,0.229462l-0.038244,0" id="svg_17" stroke-width="null" stroke="#68c6db" fill="none"/>
  <path id="svg_1" fill="#1D1D1B" d="m24.96289,10.24121c-0.08789,-0.27148 -0.32226,-0.46973 -0.60547,-0.51074l-7.38281,-1.07324l-3.30176,-6.69434c-0.2539,-0.51172 -1.0918,-0.51172 -1.3457,0l-3.30176,6.69434l-7.38281,1.07324c-0.2832,0.04101 -0.51758,0.23926 -0.60547,0.51074c-0.08887,0.27149 -0.01465,0.56934 0.18945,0.76856l5.34278,5.21093l-1.26172,7.35743c-0.04785,0.28125 0.06738,0.5664 0.29883,0.73339c0.22949,0.16895 0.53515,0.18946 0.79003,0.05762l6.60352,-3.47363l6.60352,3.47363c0.11035,0.05762 0.23046,0.08594 0.34961,0.08594c0.00683,0.00097 0.01464,0.00097 0.01953,0c0.41504,0 0.75,-0.33594 0.75,-0.75c0,-0.10352 -0.02051,-0.20313 -0.0586,-0.29297l-1.2334,-7.19141l5.34278,-5.21093c0.2041,-0.19922 0.27832,-0.49707 0.18945,-0.76856zm-6.86133,5.18067c-0.17676,0.17285 -0.25781,0.42089 -0.21582,0.66406l1.07129,6.24804l-5.60742,-2.95019c-0.10938,-0.05762 -0.22949,-0.08594 -0.34961,-0.08594s-0.24023,0.02832 -0.34961,0.08594l-5.60742,2.95019l1.07129,-6.24804c0.04199,-0.24317 -0.03906,-0.49121 -0.21582,-0.66406l-4.53711,-4.42579l6.26953,-0.91113c0.24512,-0.03516 0.45605,-0.18945 0.56543,-0.41016l2.80371,-5.68457l2.80371,5.68457c0.10938,0.22071 0.32031,0.375 0.56543,0.41016l6.26953,0.91113l-4.53711,4.42579z"/>
 </g>
</svg>