<svg width="24.000000000000004" height="24.000000000000004" xmlns="http://www.w3.org/2000/svg">

 <g>
  <title>background</title>
  <rect fill="none" id="canvas_background" height="402" width="582" y="-1" x="-1"/>
 </g>
 <g>
  <title>Layer 1</title>
  <path id="svg_1" d="m6.1,21.98a1,1 0 0 1 -1.45,-1.06l1.03,-6.03l-4.38,-4.26a1,1 0 0 1 0.56,-1.71l6.05,-0.88l2.7,-5.48a1,1 0 0 1 1.8,0l2.7,5.48l6.06,0.88a1,1 0 0 1 0.55,1.7l-4.38,4.27l1.04,6.03a1,1 0 0 1 -1.46,1.06l-5.4,-2.85l-5.42,2.85zm4.95,-4.87a1,1 0 0 1 0.93,0l4.08,2.15l-0.78,-4.55a1,1 0 0 1 0.29,-0.88l3.3,-3.22l-4.56,-0.67a1,1 0 0 1 -0.76,-0.54l-2.04,-4.14l-2.04,4.14a1,1 0 0 1 -0.75,0.54l-4.57,0.67l3.3,3.22a1,1 0 0 1 0.3,0.88l-0.79,4.55l4.09,-2.15z" class="heroicon-ui"/>
  <path d="m11.148936,11.164451c0.070922,0.03546 0.176273,0.179704 0.141844,0.425531c-0.035807,0.255665 -0.141845,0.567376 -0.248227,0.921986c-0.106383,0.35461 -0.230452,0.707331 -0.248226,0.957447c-0.017596,0.247602 -0.06389,0.357847 -0.106383,-0.141844c-0.108211,-1.272496 -0.000045,-2.266851 0.03546,-2.978724c0.014132,-0.283336 0.03546,-0.354609 0,-0.354609c-0.106382,0 0,0.390071 -0.03546,0.496453l0,0.035461" id="svg_2" stroke-width="1.5" stroke="#000" fill="none"/>
  <path d="m11.858156,5.171543c-0.035461,-0.035461 -0.070922,-0.035461 -0.106383,-0.035461c-0.070922,0 -0.108397,-0.001907 -0.141844,0.035461c-0.151432,0.169189 -0.343818,0.433606 -0.531915,0.673759c-0.201593,0.257383 -0.300931,0.312899 -0.319149,0.390071c-0.008147,0.034513 -0.038852,0.099782 0.141844,0.106383c0.285705,0.010438 0.780142,-0.425532 0.992908,-0.531915c0.070922,-0.035461 0.107188,-0.034581 -0.319148,0.35461c-0.389338,0.355415 -1.186845,0.936256 -1.914894,1.524823c-0.508491,0.411072 -0.857289,0.783613 -0.815602,0.851063c0.074572,0.120659 0.39195,-0.06813 0.70922,-0.283688c0.463775,-0.315093 0.861525,-0.466355 1.205673,-0.602837c0.073709,-0.029231 0.177305,-0.070922 0.248227,-0.070922c0.106382,0 0.321009,0.030329 0.567376,0c0.145114,-0.017864 0.211483,-0.075031 0.319148,-0.106383c0.140379,-0.040879 0.705348,-0.398542 1.241135,-0.638298c0.246508,-0.110308 0.35461,-0.177305 0.390071,-0.177305l-0.070922,0" id="svg_3" stroke-width="1.5" stroke="#000" fill="none"/>
  <path d="m13.41844,7.476507c-0.212767,0.141844 -0.388844,0.285344 -0.531915,0.390071c-0.246149,0.180179 -0.705829,0.433091 -1.382979,0.815603c-0.488183,0.275767 -0.907426,0.566149 -1.489361,0.921986c-0.369289,0.225811 -0.701875,0.419465 -0.673759,0.460993c0.30281,0.447261 1.528427,-0.556392 2.624113,-0.921986c1.031867,-0.3443 1.900042,-0.576475 1.843972,-0.744681c-0.033642,-0.100924 -0.459452,0.079134 -1.382978,0.248227c-0.814309,0.149096 -1.252261,0.218418 -1.666667,0.390071c-0.146515,0.060688 -0.233829,0.160035 -0.319149,0.212766c-0.19078,0.117908 -0.487112,0.197772 -0.780142,0.319149c-0.207203,0.085826 -0.39167,0.101007 -0.638298,0.177305c-0.321384,0.099425 -0.972204,0.353191 -1.631205,0.638298c-0.800519,0.346332 -1.130545,0.471401 -1.382979,0.567376c-0.209634,0.079703 -0.319759,0.139485 -0.460993,0.177304c-0.249374,0.066776 -0.70922,0.212766 -0.957447,0.248227c-0.248227,0.035461 -0.390071,0.070922 -0.460993,0.070922c-0.070922,0 -0.144543,-0.013571 -0.177305,0c-0.046332,0.019192 -0.070922,0.035461 -0.106383,0c-0.035461,-0.03546 -0.081308,-0.081308 -0.106383,-0.106383c-0.050149,-0.050149 -0.010903,-0.14844 0.035461,-0.212766c0.029323,-0.040683 0.172272,-0.121161 0.673759,-0.283688c0.84334,-0.273319 2.470452,-0.667159 3.652482,-0.851064c1.056427,-0.164363 1.737589,-0.177305 1.950355,-0.177305c0.035461,0 -0.070922,0.106383 -0.106382,0.177305l-0.035461,0.03546l-0.035461,0l0,0.035461" id="svg_4" stroke-width="1.5" stroke="#000" fill="none"/>
  <path d="m13.382978,8.504876c0.035461,0.070922 0.052144,0.218967 0.212766,0.673759c0.127189,0.360127 0.20969,0.604011 0.319149,0.886525c0.068991,0.178065 0.159343,0.279381 0.177305,0.390071c0.01704,0.105009 0.020038,0.355089 0.035461,0.602837c0.017764,0.285343 0.03546,0.74468 0.03546,1.205674c0,0.319148 -0.017243,0.454743 -0.03546,0.531915c-0.016294,0.069025 -0.068038,0.213195 -0.106383,0.460993c-0.032986,0.213163 -0.106383,0.319149 -0.106383,0.390071c0,0.03546 -0.032539,0.04918 -0.070922,0.141844c-0.013571,0.032763 0.025075,0.081308 0,0.106383c-0.025074,0.025074 -0.03546,0.03546 -0.03546,0.070922c0,0.03546 -0.021891,0.215465 -0.035461,0.248227c-0.057573,0.138995 -0.171055,0.194548 -0.248227,0.212766c-0.034512,0.008147 -0.070922,0 -0.106382,0c-0.141844,0 -0.212767,0 -0.283689,0c-0.070922,0 -0.106382,0 -0.141844,0c-0.03546,0 -0.055561,0.0035 -0.070922,0.03546c-0.09836,0.204652 -0.272785,0.219362 -0.319149,0.283689c-0.058646,0.081367 -0.141844,0.106382 -0.212766,0.177304c-0.070922,0.070922 -0.122358,0.086897 -0.212766,0.177305c-0.090408,0.090408 -0.192897,0.299158 -0.390071,0.531915c-0.226907,0.267856 -0.422659,0.533992 -0.602838,0.780143c-0.104726,0.14307 -0.187691,0.22315 -0.212766,0.248226c-0.025075,0.025076 -0.039127,0.0676 -0.070922,0.106382c-0.081061,0.098877 -0.141844,0.141844 -0.141844,0.177305c0,0.035461 -0.027315,0.071871 -0.035461,0.106382c-0.018217,0.077173 -0.106381,0.177305 -0.177304,0.248228c-0.070922,0.070921 -0.140254,0.090395 -0.177305,0.212765c-0.010276,0.033939 -0.025186,0.036983 -0.035461,0.070923c-0.037051,0.12237 -0.122652,0.166433 -0.141844,0.212767c-0.01357,0.032761 -0.068,0.084641 -0.106382,0.177305c-0.01357,0.032761 -0.035461,0.03546 -0.070922,0.070921c-0.106382,0.106382 -0.16196,0.187349 -0.212767,0.248226c-0.113608,0.136126 -0.161318,0.175716 -0.283688,0.212767c-0.03394,0.010277 -0.107332,-0.008148 -0.141844,0c-0.077172,0.018219 -0.210759,0.111622 -0.390071,0.177305c-0.21059,0.077143 -0.421756,0.148819 -0.744681,0.319149c-0.210404,0.110979 -0.348359,0.194548 -0.425531,0.212767c-0.069025,0.016294 -0.108281,0.019165 -0.177305,0.03546c-0.077172,0.018219 -0.141844,0.035461 -0.177305,0.035461c-0.070922,0 -0.115098,-0.00098 -0.070922,-0.35461c0.088898,-0.711622 0.246231,-1.414604 0.319149,-2.19858c0.065763,-0.707056 0.070922,-0.992908 0.070922,-1.241136c0,-0.141844 0.020552,-0.286731 0,-0.354609c-0.037051,-0.122371 -0.162556,-0.232553 -0.319149,-0.460993c-0.206424,-0.301135 -0.268784,-0.537478 -0.35461,-0.744681c-0.060688,-0.146515 -0.104152,-0.348374 -0.248227,-0.602837c-0.049417,-0.08728 -0.104794,-0.090396 -0.141844,-0.212766c-0.020552,-0.067879 -0.035461,-0.070922 -0.035461,-0.106383c0,-0.035461 0.012326,-0.067075 0.106383,-0.390071c0.081757,-0.280757 0.212736,-0.514584 0.390071,-0.921986c0.134266,-0.308457 0.161447,-0.429276 0.177305,-0.460993c0.079293,-0.158587 0.949077,-0.482991 2.695035,-1.134752c1.376598,-0.51388 2.339708,-0.854465 2.83688,-0.957446c0.177057,-0.036674 0.195186,-0.105124 0.354609,0c0.083734,0.055214 0.153915,0.143962 0.141844,0.177304c-0.094284,0.260418 -0.45,0.507957 -0.70922,0.744681c-0.204513,0.186765 -0.531178,0.358008 -0.851064,0.425531c-0.353835,0.07469 -0.901837,0.244891 -1.631206,0.425532c-0.696122,0.172407 -1.322963,0.281056 -1.879432,0.460993c-0.181701,0.058754 -0.309484,0.159101 -0.425532,0.212766c-0.234318,0.108358 -0.489448,0.157194 -0.70922,0.248227c-0.103601,0.042913 -0.318233,0.111316 -0.496454,0.141844c-0.247148,0.042335 -0.50869,0.06804 -0.673759,0.141844c-0.161863,0.072371 -0.465976,0.197207 -0.709219,0.283689c-0.254459,0.090468 -0.319607,0.147524 -0.35461,0.141844c-0.11069,-0.017962 -0.177305,-0.106383 -0.177305,-0.141844c0,-0.035461 0.263984,-0.24885 1.560284,-0.567376c0.560587,-0.137748 1.979122,-0.393593 2.695035,-0.496454c1.198055,-0.172134 2.138315,-0.223248 2.907802,-0.39007c0.723638,-0.156881 0.993868,-0.350418 1.312057,-0.425532c0.426895,-0.100777 1.052163,-0.283261 1.702127,-0.354609c0.317244,-0.034824 0.35461,0 0.390071,0c0.070922,0 0.31726,0.017686 0.567376,0.03546c0.176859,0.012568 0.283688,0 0.460993,0c0.070921,0 0.141844,0 0.177305,0c0.106382,0 0.330143,0.011968 0.425531,0.070922c0.127979,0.079095 0.17757,0.172973 0.212767,0.177305c0.145113,0.017864 0.178827,0.025185 0.212765,0.03546c0.122372,0.03705 0.206123,0.149179 0.283689,0.212767c0.098877,0.081059 0.200041,0.125899 0.354609,0.212766c0.166475,0.093558 0.264109,0.070579 -0.212765,0.354609c-0.371889,0.221502 -0.956121,0.40778 -1.312057,0.425532c-0.177086,0.008832 -0.674096,-0.018961 -1.205673,0c-0.497403,0.017742 -1.077102,0.080645 -1.702128,0.248227c-0.585284,0.156927 -1.186485,0.46683 -1.914893,0.780142c-0.381285,0.164002 -0.632556,0.264734 -0.815602,0.319149c-0.173321,0.051523 -0.35461,0.03546 -0.567376,0.03546c-0.354609,0 -0.602837,0 -0.851064,0.035461c-0.248227,0.03546 -0.320065,0.059562 -0.390071,0.070922c-0.11069,0.017962 -0.424796,0.180703 -0.74468,0.248227c-0.353836,0.074691 -0.642486,0.155156 -0.886525,0.212766c-0.109138,0.025764 -0.203283,0.006425 0.070922,-0.212766c0.622456,-0.497572 1.921643,-1.26573 2.269504,-1.489362c0.579168,-0.372335 0.815602,-0.531915 1.063829,-0.602838c0.248227,-0.070922 0.532693,-0.165329 0.886525,-0.141844c0.535444,0.035539 0.997931,0.067626 1.418439,0.141844c0.398164,0.070274 0.750194,0.108419 1.06383,0.177305c0.328581,0.072168 0.667926,0.141631 0.992908,0.177305c0.140997,0.015477 0.215611,0.01102 0.319149,0.035461c0.077171,0.018217 0.106383,0.03546 0.177305,0.106382c0.106382,0.106383 0.18958,0.131399 0.248226,0.212766c0.046364,0.064326 0.124576,0.091986 0.177306,0.177305c0.058954,0.09539 0.040878,0.249693 0,0.390071c-0.062704,0.215331 -0.130975,0.302879 -0.177306,0.283688c-0.065523,-0.027141 0.212298,-0.544247 0.106383,-0.992908c-0.054654,-0.231516 -0.158662,-0.288983 -0.177305,-0.319149c-0.041687,-0.067451 -0.137281,-0.109921 -0.248226,-0.248227c-0.204572,-0.255022 -0.390072,-0.496453 -0.567376,-0.74468l-0.070922,-0.106383l-0.035461,-0.070922l-0.248227,0.177305" id="svg_5" stroke-width="1.5" stroke="#000" fill="none"/>
  <path d="m15.971631,19.320478c0,0 -0.089337,-0.019794 -0.177305,-0.141844c-0.046364,-0.064327 -0.060019,-0.148439 -0.106382,-0.212767c-0.029323,-0.040684 -0.118659,-0.095938 -0.177305,-0.177305c-0.046363,-0.064325 -0.081915,-0.118351 -0.177305,-0.177305c-0.085319,-0.052731 -0.147982,-0.10116 -0.177305,-0.141844c-0.046363,-0.064325 -0.101161,-0.183443 -0.141844,-0.212765c-0.064326,-0.046364 -0.113716,-0.099741 -0.177305,-0.177305c-0.08106,-0.098875 -0.179855,-0.246571 -0.248226,-0.35461c-0.110571,-0.174725 -0.161746,-0.324133 -0.248227,-0.567375c-0.090469,-0.254459 -0.177305,-0.496454 -0.212766,-0.74468c-0.035461,-0.248228 -0.16195,-0.640982 -0.212767,-0.886525c-0.08194,-0.395927 -0.208475,-0.809004 -0.283688,-1.241135c-0.06111,-0.351101 -0.062887,-0.60302 -0.070922,-0.780142c-0.017749,-0.391277 -0.035461,-0.602838 -0.106383,-0.815603l-0.03546,-0.141844l-0.035461,-0.070922l0,-0.035461" id="svg_7" stroke-width="1.5" stroke="#000" fill="none"/>
  <path d="m16.148935,18.079344c-0.03546,-0.141844 -0.063885,-0.638851 -0.106382,-1.134752c-0.03043,-0.355078 -0.141844,-0.602837 -0.141844,-0.638298c0,-0.070921 -0.056242,-0.279287 -0.106383,-0.567375c-0.061109,-0.351101 -0.050448,-0.639144 -0.070922,-0.886525c-0.035583,-0.429931 -0.086272,-0.709933 -0.106382,-0.992908c-0.017776,-0.250116 -0.05584,-0.461528 -0.070923,-0.673759c-0.017775,-0.250116 -0.03546,-0.390071 -0.03546,-0.460993c0,-0.070922 -0.013571,-0.180004 0,-0.212767c0.038383,-0.092664 0.131399,-0.15412 0.212766,-0.212766c0.128652,-0.092727 0.422899,-0.088566 0.602837,-0.106382c0.070578,-0.006989 0.171055,-0.052705 0.248228,-0.070923c0.069023,-0.016294 0.081366,-0.023184 0,0.035461c-0.064327,0.046365 -0.131401,0.083199 -0.212767,0.141844c-0.064327,0.046365 -0.117376,0.011968 -0.212767,0.070922c-0.08532,0.05273 -0.181986,0.133166 -0.319148,0.212766c-0.110585,0.064176 -0.201863,0.14844 -0.248227,0.212767c-0.058646,0.081367 -0.188305,0.202802 -0.283688,0.319149c-0.081059,0.098877 -0.207471,0.194122 -0.177305,0.212766c0.134901,0.083374 0.308704,-0.189582 0.390071,-0.248227c0.064326,-0.046363 0.111782,-0.079243 0.177305,-0.106383c0.092664,-0.038383 0.090157,-0.074852 0.106382,-0.106382c0.139584,-0.271238 0.559005,-0.196024 0.638297,-0.35461c0.015858,-0.031717 -0.074947,0.139018 -0.248226,0.390071c-0.145256,0.210452 -0.212766,0.319149 -0.248227,0.35461l0,0.03546" id="svg_8" stroke-width="1.5" stroke="#000" fill="none"/>
  <path d="m7.780142,13.292109c0.212766,0 0.454242,-0.020117 0.744681,-0.106382c0.313402,-0.093086 0.634648,-0.227044 0.70922,-0.106383c0.041687,0.067451 -0.081675,0.133665 -0.106383,0.177305c-0.072038,0.127232 -0.070458,0.310536 -0.106383,0.531915c-0.051122,0.315028 0.017686,0.530025 0.035461,0.780142c0.005028,0.070744 0,0.106383 0,0.177305c0,0.03546 -0.035248,0.112215 -0.070922,-0.212767c-0.011608,-0.105747 -0.008321,-0.218164 -0.035461,-0.283688c-0.019191,-0.046331 -0.106382,-0.177305 -0.141844,-0.248227c-0.03546,-0.070922 -0.106383,-0.141844 -0.141844,-0.177304c-0.035461,-0.035461 -0.11866,-0.095939 -0.177305,-0.177305c-0.046363,-0.064326 -0.083149,-0.168633 -0.106382,-0.141844c-0.16429,0.189427 0.434628,1.127553 0.460993,1.170213c0.058953,0.095389 0.155993,0.315535 0.212766,0.567375c0.047435,0.210421 0.041598,0.278466 0.070922,0.319149c0.046364,0.064325 0.03816,0.092813 0.070922,0.106383c0.046332,0.019191 0.070922,0.03546 0.070922,0.070922c0,0.141844 0,0.248227 0,0.319149c0,0.035461 -0.025405,0.1422 -0.03546,0.283688c-0.017776,0.250116 -0.052704,0.383821 -0.070922,0.460993c-0.024442,0.103537 0,0.141844 0,0.177305c0,0.035461 -0.051169,0.058109 -0.106383,0.141844c-0.105124,0.159424 -0.130942,0.325745 -0.177305,0.39007c-0.029323,0.040684 -0.070922,0.035461 -0.141844,0.035461c-0.070922,0 -0.141672,0.031967 -0.106383,0.035461c0.179936,0.017817 0.084578,-0.403263 0.177305,-0.531916c0.058645,-0.081366 0.145511,-0.138521 0.177305,-0.177303c0.081061,-0.098877 0.141845,-0.212767 0.248227,-0.460993c0.106383,-0.248228 0.445678,-0.593905 0.531915,-0.815603c0.093589,-0.240599 0.177305,-0.425532 0.248227,-0.638298l0.03546,-0.070922l0,-0.035461" id="svg_9" stroke-width="1.5" stroke="#000" fill="none"/>
  <path d="m11.468085,13.504876c-0.106383,0.070922 -0.314947,0.254974 -0.425532,0.319149c-0.068582,0.039799 -0.1232,0.111678 -0.141844,0.141844c-0.041687,0.067451 -0.177305,0.106382 -0.283688,0.141844c-0.319149,0.106384 -0.770553,0.398188 -0.921986,0.567376c-0.033446,0.037368 -0.070922,0.106382 -0.106383,0.141844c-0.070922,0.070922 -0.141844,0.177304 -0.248227,0.283688c-0.070922,0.070922 -0.112978,0.130941 -0.177304,0.177305c-0.081367,0.058646 -0.141845,0.141844 -0.212767,0.212766c-0.070922,0.070922 -0.156697,0.192159 -0.212766,0.248227c-0.056068,0.056068 -0.043781,0.147243 -0.070922,0.212766c-0.019192,0.046332 -0.035461,0.070922 -0.035461,0.106383l0,0.035461l0,0.03546l0,0.035461" id="svg_10" stroke-width="1.5" stroke="#000" fill="none"/>
  <path d="m18.879433,10.738918c0.035461,-0.03546 0.085773,-0.050314 0.141844,-0.106382c0.05607,-0.056069 0.141844,-0.177305 0.212765,-0.248227c0.070923,-0.070923 0.159088,-0.100134 0.177305,-0.177305c0.016294,-0.069025 0.021891,-0.174605 0.035461,-0.141844c0.038383,0.092663 -0.256479,0.203306 -0.460993,0.390071c-0.25922,0.236724 -0.476564,0.443823 -0.673759,0.638298c-0.232777,0.229566 -0.531914,0.460993 -0.638296,0.531915c-0.106384,0.070922 -0.184813,0.096245 -0.283689,0.177304c-0.077564,0.063588 -0.134645,0.15094 -0.177305,0.177305c-0.09539,0.058953 -0.177303,0.106383 -0.248226,0.177305l-0.070923,0.070922l-0.03546,0.070922" id="svg_11" stroke-width="1.5" stroke="#000" fill="none"/>
  <path d="m15.049645,17.015514c0.03546,0.141844 0.164718,0.500399 0.248227,0.74468c0.061772,0.180696 0.2303,0.451765 0.354609,0.709219c0.083033,0.171967 0.193575,0.308279 0.212766,0.35461c0.01357,0.032763 0.025995,0.036749 0.035461,0.070923c0.055194,0.199266 0.212767,0.39007 0.319149,0.496452l0.035461,0.035461" id="svg_12" stroke-width="1.5" stroke="#000" fill="none"/>
  <path d="m15.723404,19.07225c0.035461,-0.354609 -0.18991,-1.097187 -0.460993,-2.16312c-0.194061,-0.763073 -0.099482,-1.279419 -0.141844,-1.595744c-0.053666,-0.40074 -0.185153,-0.685055 -0.283689,-0.886524c-0.056174,-0.114856 -0.16199,-0.239295 -0.248226,-0.460993c-0.093589,-0.240599 -0.275229,-0.643328 -0.425532,-0.886525c-0.067218,-0.108762 -0.070922,-0.141844 -0.106382,-0.141844l0,-0.035461l-0.035461,0.035461l-0.070922,0" id="svg_13" stroke-width="1.5" stroke="#000" fill="none"/>
  <path d="m13.382978,12.831117c0,0.035461 -0.070922,0.106383 -0.141844,0.177305c-0.070922,0.070922 -0.161318,0.140254 -0.283688,0.177305c-0.033939,0.010276 -0.173104,0.077669 -0.283689,0.141844c-0.205745,0.119398 -0.464225,0.240981 -0.70922,0.354609c-0.143867,0.066725 -0.283688,0.177305 -0.354609,0.212767c-0.070922,0.03546 -0.106383,0.070922 -0.177305,0.070922c-0.070922,0 -0.141844,0.03546 -0.212766,0.106382c-0.070922,0.070922 -0.141844,0.141845 -0.248227,0.248227c-0.070922,0.070922 -0.134391,0.180087 -0.177304,0.283689c-0.030344,0.073257 -0.087193,0.095511 -0.106383,0.141844c-0.01357,0.032762 -0.028008,0.109164 -0.070922,0.212766c-0.030344,0.073257 -0.090316,0.136334 -0.141844,0.354609c-0.057611,0.24404 -0.085517,0.439859 -0.212767,0.602838c-0.030862,0.039528 -0.03546,0.106382 -0.03546,0.177305c0,0.070921 -0.027314,0.10733 -0.035461,0.141844c-0.018218,0.077171 -0.03546,0.106382 -0.03546,0.177305c0,0.03546 0,0.106382 0,0.141844c0,0.03546 -0.025075,0.081306 0,0.106382c0.025074,0.025074 0.070922,0.035461 0.177304,0.035461c0.212767,0 0.460994,-0.106384 0.744681,-0.248228c0.283688,-0.141844 0.531915,-0.248226 0.886524,-0.39007c0.177305,-0.070922 0.283689,-0.106383 0.35461,-0.106383c0.03546,0 0.107332,-0.008147 0.141844,0c0.077172,0.018218 0.11298,0.060019 0.177305,0.106383c0.040683,0.029324 0.113131,0.137642 0.177305,0.248226c0.079599,0.137163 0.100965,0.249693 0.141844,0.390072c0.031352,0.107664 0.017989,0.213627 0.03546,0.39007c0.017817,0.179937 0.074589,0.280365 0.106383,0.319149c0.081059,0.098877 0.141844,0.141844 0.177305,0.212767c0.03546,0.070921 0.07706,0.136621 0.106382,0.177305c0.046363,0.064325 0.141844,0.141844 0.141844,0.106382c0,-0.106382 -0.225042,-0.060478 -0.283688,-0.141844c-0.046365,-0.064327 -0.219787,-0.12883 -0.425531,-0.248228c-0.110584,-0.064175 -0.170662,-0.113716 -0.248227,-0.177303c-0.098878,-0.08106 -0.152596,-0.133665 -0.177305,-0.177305c-0.072038,-0.127232 -0.121071,-0.269001 -0.070922,-0.319149c0.025074,-0.025074 0.299712,-0.116899 0.531915,-0.283688c0.346812,-0.249111 0.584604,-0.740922 0.638298,-1.028369c0.052496,-0.281035 0.060535,-0.329535 0.03546,-0.35461c-0.050149,-0.050149 -0.177304,0 -0.248226,0c-0.035461,0 -0.109082,0.021891 -0.141845,0.035461c-0.092664,0.038383 -0.116438,0.177661 -0.106382,0.319149c0.017775,0.250115 0.125592,0.536311 0.248227,0.957446c0.031352,0.107664 0.116279,0.46777 0.212766,0.780142c0.056358,0.182457 0.141844,0.248226 0.177305,0.283688c0.03546,0.035461 0.088566,0.068291 0.106382,0.248228c0.010483,0.105865 0.035461,0.177305 0.035461,0.248226l0,0.035461l0,0.035461" id="svg_14" stroke-width="1.5" stroke="#000" fill="none"/>
 </g>
</svg>