<svg width="25.999999999999996" height="25.999999999999996" xmlns="http://www.w3.org/2000/svg">

 <g>
  <title>background</title>
  <rect fill="none" id="canvas_background" height="402" width="582" y="-1" x="-1"/>
 </g>
 <g>
  <title>Layer 1</title>
  <path id="svg_1" fill="#1D1D1B" d="m24.96289,10.24121c-0.08789,-0.27148 -0.32226,-0.46973 -0.60547,-0.51074l-7.38281,-1.07324l-3.30176,-6.69434c-0.2539,-0.51172 -1.0918,-0.51172 -1.3457,0l-3.30176,6.69434l-7.38281,1.07324c-0.2832,0.04101 -0.51758,0.23926 -0.60547,0.51074c-0.08887,0.27149 -0.01465,0.56934 0.18945,0.76856l5.34278,5.21093l-1.26172,7.35743c-0.04785,0.28125 0.06738,0.5664 0.29883,0.73339c0.22949,0.16895 0.53515,0.18946 0.79003,0.05762l6.60352,-3.47363l6.60352,3.47363c0.11035,0.05762 0.23046,0.08594 0.34961,0.08594c0.00683,0.00097 0.01464,0.00097 0.01953,0c0.41504,0 0.75,-0.33594 0.75,-0.75c0,-0.10352 -0.02051,-0.20313 -0.0586,-0.29297l-1.2334,-7.19141l5.34278,-5.21093c0.2041,-0.19922 0.27832,-0.49707 0.18945,-0.76856zm-6.86133,5.18067c-0.17676,0.17285 -0.25781,0.42089 -0.21582,0.66406l1.07129,6.24804l-5.60742,-2.95019c-0.10938,-0.05762 -0.22949,-0.08594 -0.34961,-0.08594s-0.24023,0.02832 -0.34961,0.08594l-5.60742,2.95019l1.07129,-6.24804c0.04199,-0.24317 -0.03906,-0.49121 -0.21582,-0.66406l-4.53711,-4.42579l6.26953,-0.91113c0.24512,-0.03516 0.45605,-0.18945 0.56543,-0.41016l2.80371,-5.68457l2.80371,5.68457c0.10938,0.22071 0.32031,0.375 0.56543,0.41016l6.26953,0.91113l-4.53711,4.42579z"/>
  <path stroke="null" d="m13.019121,4.870855c0,-0.038243 0.128933,0.219776 0.229462,0.382435c0.089916,0.145487 0.123318,0.302734 0.191217,0.497166c0.131639,0.37695 0.222754,0.614243 0.305948,0.841358c0.070837,0.193382 0.157523,0.428917 0.229462,0.65014c0.052891,0.162647 0.09795,0.426054 0.191217,0.688384c0.097568,0.274426 0.191218,0.611897 0.229462,0.688384c0.038243,0.076488 -0.000001,0.191218 0.038243,0.191218c0.038244,0 0,-0.114731 -0.114731,-0.267705l-0.076487,-0.076488" id="svg_7" fill-opacity="null" stroke-opacity="null" stroke-width="null" fill="none"/>
  <path d="m14.969543,7.241955c0,-0.038243 -0.458922,-0.420679 -0.803115,-0.726627c-0.344192,-0.305948 -0.535409,-0.497166 -0.65014,-0.573653c-0.114731,-0.076487 -0.243689,-0.129458 -0.382436,-0.229461c-0.131627,-0.094872 -0.217703,-0.236575 -0.267705,-0.305948c-0.031624,-0.043876 -0.076487,-0.114731 -0.076487,-0.152975c0,-0.11473 -0.042881,-0.347649 0,-0.611897c0.019372,-0.119375 0.062802,-0.282827 0.114731,-0.267705c0.338527,0.09858 0.196817,0.993423 0.305948,1.682716c0.120944,0.763913 0.549789,1.905933 0.726627,2.332857c0.125043,0.30188 0.152974,0.497166 0.191217,0.65014l0.038243,0.114731l0.038244,0.076488l0,0.038243" id="svg_8" fill-opacity="null" stroke-opacity="null" stroke-width="null" stroke="null" fill="none"/>
 </g>
</svg>