<svg width="25.999999999999996" height="25.999999999999996" xmlns="http://www.w3.org/2000/svg">

 <g>
  <title>background</title>
  <rect fill="none" id="canvas_background" height="402" width="582" y="-1" x="-1"/>
 </g>
 <g>
  <title>Layer 1</title>
  <line stroke-linecap="undefined" stroke-linejoin="undefined" id="svg_2" y2="20.512467" x2="12.292494" y1="3.494087" x1="12.521955" stroke-width="1.5" stroke="#68c6db" fill="none"/>
  <path d="m4.529054,10.301439c-0.076488,0 -0.158797,0.008973 -0.229462,0.038243c-0.099936,0.041395 -0.191217,0.152974 -0.267704,0.229462c-0.076487,0.076487 -0.103467,0.166213 -0.191218,0.229461c-0.069374,0.050002 -0.073258,0.094643 0.191218,0.038244c0.272295,-0.058065 0.544181,-0.203914 0.688384,-0.267705c0.126102,-0.055783 0.191218,-0.114731 0.382436,-0.114731c0.076487,0 0.11473,0 0.191217,0c0.076487,0 0.207297,-0.034963 0.229462,0.038243c0.079916,0.263946 -0.505684,0.333637 -0.650141,0.458923c-0.081717,0.070872 -0.120442,0.132868 -0.152974,0.152974c-0.072743,0.044958 -0.106693,0.194217 -0.152974,0.305948c-0.032725,0.079005 -0.083652,0.122639 0,0.191217c0.106636,0.08742 0.186832,0.157933 0.229461,0.191217c0.175767,0.137235 0.305949,0.152974 0.382436,0.152974c0.076487,0 0.141216,0.045358 0.191217,0.114731c0.063248,0.087751 0.160252,0.148443 0.229462,0.267705c0.128767,0.221889 0.258916,0.410891 0.458922,0.688384c0.126495,0.175503 0.218528,0.237556 0.305948,0.344192c0.102867,0.125478 0.167202,0.129458 0.305949,0.229462c0.087751,0.063248 0.199127,0.145809 0.267705,0.229462c0.08742,0.106635 0.17756,0.214852 0.305948,0.458922c0.095879,0.182268 0.152974,0.344192 0.267704,0.458922c0.114731,0.114731 0.194962,0.146259 0.267705,0.191217c0.16266,0.100529 0.172594,0.137447 0.229461,0.229462c0.06358,0.102875 0.102479,0.23045 0.114731,0.305948c0.019372,0.119375 0.114731,0.420679 0.114731,0.611897c0,0.038242 0.038243,0.114731 0.038243,0.152973c0,0.152975 0,0.305948 0,0.458923c0,0.152973 0,0.229462 0,0.267704c0,0.152975 0.076488,0.382437 0.076488,0.53541c0,0.152975 0,0.229462 0,0.267706c0,0.076487 0,0.152973 0,0.267704c0,0.229462 -0.038244,0.650141 -0.076488,0.841358c-0.038243,0.191217 -0.060024,0.349279 -0.114731,0.497166c-0.02967,0.080204 -0.083763,0.110199 -0.152974,0.229462c-0.042922,0.073963 -0.105372,0.196266 -0.191217,0.344193c-0.06921,0.119263 -0.164011,0.339153 -0.229462,0.497166c-0.092561,0.223463 -0.18451,0.499512 -0.267704,0.726627c-0.141675,0.386763 -0.208764,0.56193 -0.229462,0.611897c-0.043907,0.105997 -0.02636,0.194286 0,0.305948c0.019648,0.083229 0.083601,0.141216 0.152975,0.191217c0.087752,0.063248 0.141216,0.160088 0.191217,0.229462c0.063248,0.087753 0.152974,0.076488 0.229462,0.076488c0.076487,0 0.184895,-0.041515 0.305948,-0.267706c0.145488,-0.271845 0.245201,-0.474375 0.382436,-0.650141c0.066568,-0.085258 0.141216,-0.121845 0.191217,-0.191217c0.063247,-0.087751 0.141243,-0.19767 0.229462,-0.344193c0.169691,-0.281841 0.256771,-0.39053 0.344192,-0.497166c0.068579,-0.083651 0.076488,-0.152973 0.114731,-0.191217c0.038243,-0.038244 0.103465,-0.089727 0.191217,-0.152975c0.069373,-0.050001 0.126088,-0.099962 0.229462,-0.191217c0.064109,-0.056593 0.292864,-0.207062 0.382435,-0.267704c0.241179,-0.163286 0.337452,-0.17157 0.420679,-0.191217c0.148882,-0.035145 0.328352,-0.054085 0.382436,0c0.027041,0.02704 -0.370678,0.50428 -0.420679,0.573652c-0.094872,0.131628 -0.202419,0.164175 -0.229462,0.191217c-0.027042,0.027042 0.276784,-0.219427 0.573654,-0.497166c0.118484,-0.110849 0.179954,-0.204456 0.267704,-0.267704c0.069374,-0.050003 0.114731,-0.152975 0.114731,-0.229462l0,-0.076487" id="svg_4" stroke-width="1.5" stroke="#68c6db" fill="none"/>
  <path d="m9.041792,20.397736c0.038244,-0.038242 0.152601,-0.068464 0.191218,-0.344191c0.042436,-0.302992 0.019051,-0.650616 0,-1.032576c-0.019145,-0.383867 -0.152974,-0.650141 -0.152974,-0.841358c0,-0.076488 -0.05684,-0.069748 -0.076488,-0.152975c-0.017573,-0.07444 -0.044377,-0.151569 -0.076487,-0.305948c-0.04737,-0.227753 -0.076488,-0.344193 -0.076488,-0.420679c0,-0.038244 0,-0.076487 0,-0.764872c0,-0.841357 -0.002519,-1.490751 -0.114731,-1.873934c-0.078246,-0.267195 -0.186856,-0.469532 -0.305948,-0.65014c-0.113372,-0.171933 -0.117809,-0.32457 -0.191217,-0.420679c-0.083698,-0.109582 -0.158625,-0.303784 -0.229462,-0.497166c-0.083195,-0.227116 -0.157263,-0.455799 -0.267704,-0.611897c-0.079641,-0.112564 -0.217704,-0.313062 -0.267705,-0.382435c-0.063248,-0.087751 -0.155498,-0.110052 -0.229461,-0.152975c-0.119261,-0.06921 -0.466249,-0.118203 -0.726627,-0.191217c-0.280437,-0.078639 -0.544319,-0.175528 -0.688384,-0.267705c-0.20627,-0.131978 -0.218197,-0.204457 -0.305948,-0.267705c-0.069374,-0.050002 -0.160088,-0.102972 -0.229462,-0.152974c-0.087751,-0.063248 -0.102973,-0.160088 -0.152974,-0.229461c-0.031624,-0.043876 -0.04703,-0.153997 -0.038243,-0.191218c0.019647,-0.083227 0.184927,-0.190988 0.535409,-0.229461c0.266107,-0.029211 0.534173,0.00447 0.803114,0.076487c0.152317,0.040787 0.337451,0.171571 0.420679,0.191218c0.03722,0.008787 0.132277,-0.011724 0.152974,0.038243c0.014635,0.035332 -0.064489,0.296468 -0.191217,0.688384c-0.048514,0.150034 -0.076487,0.305948 -0.076487,0.420679c0,0.038243 -0.012617,0.077008 0,0.229461c0.019187,0.231834 0.161069,0.33326 0.267704,0.420679c0.083652,0.068578 0.143837,0.16888 0.267705,0.229462c0.108639,0.053134 0.153104,0.073332 0.191218,0.076487c0.231834,0.019188 0.326406,0.064603 0.382435,0c0.079237,-0.091362 0.114731,-0.229461 0.114731,-0.267704c0,-0.076488 -0.169658,-0.131546 -0.420679,-0.344193c-0.247606,-0.209753 -0.503536,-0.473454 -0.65014,-0.803115c-0.113133,-0.254395 -0.210089,-0.454278 -0.229461,-0.573653c-0.012252,-0.075499 -0.002181,-0.119256 0.152974,-0.191217c0.264219,-0.122545 0.570779,-0.24035 0.841358,-0.305948c0.379029,-0.09189 0.543017,-0.058603 0.65014,-0.114731c0.169376,-0.088745 0.346238,-0.173645 0.420679,-0.191217c0.083228,-0.019648 0.232461,-0.068451 0.344193,-0.114731c0.079005,-0.032725 0.160088,-0.026485 0.229461,-0.076488c0.087751,-0.063248 0.404635,-0.083682 0.764872,-0.458922c0.095493,-0.099471 0.409746,-0.467018 0.497166,-0.573653c0.034288,-0.041825 0.114731,-0.076487 0.191218,-0.152974c0.11473,-0.114731 0.184052,-0.199127 0.267704,-0.267705c0.106635,-0.08742 0.203596,-0.172867 0.267705,-0.229461c0.103373,-0.091255 0.152974,-0.305949 0.229462,-0.42068c0.076488,-0.11473 0.09558,-0.266116 0.114731,-0.611897c0.019033,-0.343665 0.02067,-0.460969 0.038243,-0.53541c0.019648,-0.083228 0.041788,-0.113801 0,0.038244c-0.105813,0.384998 -0.297311,1.073242 -0.344192,1.223794c-0.097147,0.311978 -0.216606,0.564146 -0.305949,0.841358c-0.108158,0.335589 -0.102478,0.421667 -0.11473,0.497167c-0.019372,0.119375 -0.228601,0.479946 -0.305949,0.994332c-0.022747,0.151274 -0.09556,0.495128 -0.11473,0.764871c-0.021688,0.305179 0,0.573653 0,0.611897c0,0.114731 0,2.026909 0,2.218126c0,0.152974 0.018871,0.301304 0.038243,0.420679c0.012252,0.0755 0.020262,0.115402 0,0.420679c-0.038328,0.577459 -0.084553,1.071712 -0.038243,1.453255c0.032583,0.268454 0.013844,0.421545 0.038243,0.764872c0.01917,0.269741 0.095465,0.531883 0.114731,0.688383c0.009346,0.075914 0.01049,0.110331 0.038243,0.191217c0.063287,0.184452 0.05527,0.383915 0.076488,0.53541c0.038616,0.275726 0.172002,0.532572 0.191217,0.726627c0.011305,0.114172 0,0.229462 0,0.305948c0,0.076488 0.027042,0.125933 0,0.152975c-0.027042,0.027042 -0.283155,-0.053984 -0.458922,-0.191217c-0.213149,-0.166422 -0.370751,-0.462084 -0.458923,-0.764872c-0.033813,-0.116114 -0.038243,-0.152973 -0.038243,-0.191217c0,-0.076487 -0.042674,-0.189835 -0.076487,-0.305948c-0.044086,-0.151394 -0.048827,-0.347977 -0.114731,-0.726627c-0.054076,-0.310694 -0.160479,-0.685974 -0.267705,-1.032576c-0.082285,-0.265981 -0.209814,-0.566914 -0.229462,-0.650141c-0.017573,-0.074441 -0.05722,-0.149447 -0.076487,-0.305948c-0.028036,-0.227742 0,-0.420679 0,-0.688384c0,-0.267705 -0.036048,-0.770816 0.038243,-1.109063c0.077831,-0.354363 0.172002,-0.647303 0.191217,-0.841358c0.003768,-0.038057 0.038244,-0.114731 0.038244,-0.191217c0,-0.191218 0.020921,-0.34849 0.076487,-0.53541c0.058684,-0.19741 0.150823,-0.293216 0.229462,-0.573653c0.073014,-0.26038 0.076487,-0.497167 0.076487,-0.611897c0,-0.076488 0,-0.152974 -0.038243,-0.191218c-0.038243,-0.038243 -0.152473,-0.105442 -0.191217,-0.344192c-0.006125,-0.037749 0.007822,-0.067454 -0.344193,0.229461c-0.374368,0.315769 -0.65014,0.53541 -0.726627,0.611897c-0.076487,0.076487 -0.079558,0.129126 -0.229461,0.191217c-0.035333,0.014635 -0.087688,-0.027042 -0.114731,0c-0.027042,0.027042 -0.132277,0.141251 -0.152974,0.191217c-0.014635,0.035333 0.497628,0.149865 0.764871,0.191218c0.229891,0.035574 0.344193,0.114731 0.420679,0.191217c0.076488,0.076488 0.179954,0.204457 0.267705,0.267705c0.069373,0.050001 0.153468,0.044369 0.191217,0.038243c0.23875,-0.038744 0.382436,-0.229461 0.803115,-0.65014c0.267705,-0.267705 0.370005,-0.559122 0.497166,-0.764872c0.056868,-0.092014 0.120442,-0.132869 0.152974,-0.152974c0.072743,-0.044957 0.081491,-0.18961 0.152975,-0.420679c0.082285,-0.26598 0.175144,-0.541409 0.267705,-0.764871c0.065451,-0.158011 0.229176,-0.377763 0.191217,-0.382436c-0.156501,-0.019266 -0.133941,0.338374 -0.229462,0.688384c-0.144164,0.528246 -0.19787,0.886056 -0.267705,1.147306c-0.053185,0.198962 -0.114731,0.382436 -0.152974,0.53541c-0.038243,0.152974 -0.038243,0.267705 -0.038243,0.420679c0,0.076487 0,0.152974 0,0.191217c0,0.229462 0,0.497167 0,0.650141c0,0.114731 0,0.191217 0,0.344192c0,0.114731 0,0.191218 0,0.267705c0,0.038243 0,0.114731 0,0.191217c0,0.114731 0.018977,0.344866 0,0.611897c-0.01917,0.269743 -0.063281,0.53678 -0.038243,0.764871c0.038473,0.350482 0.0677,0.383459 0.076487,0.420679c0.019648,0.083228 0.053474,0.19456 0.114731,0.53541c0.055782,0.310391 0.041342,0.501258 0.076488,0.65014c0.019648,0.083227 0.083763,0.22493 0.152974,0.344193c0.042922,0.073963 0.046818,0.111015 0.076487,0.191217c0.054708,0.147888 0.076488,0.305948 0.076488,0.344193c0,0.191217 0.038243,0.305948 0.038243,0.458921c0,0.114731 0.007233,0.153666 0,0.191219c-0.038946,0.20223 -0.152473,0.334902 -0.191217,0.573652c-0.006126,0.03775 -0.089556,-0.264633 -0.191218,-0.726627c-0.175701,-0.79845 -0.166818,-1.148172 -0.191217,-1.491499c-0.01917,-0.269742 -0.076488,-0.458922 -0.076488,-0.535409c0,-0.076488 -0.026938,-0.191776 -0.038243,-0.305948c-0.019216,-0.194057 -0.076487,-0.229462 -0.076487,-0.458923c0,-0.267705 -0.029211,-0.498764 0,-0.764871c0.038473,-0.350482 0.190166,-0.521929 0.229461,-0.688384c0.017573,-0.074441 -0.012252,-0.153962 0,-0.229461c0.019372,-0.119375 0.076488,-0.305948 0.076488,-0.382436c0,-0.076488 0.038243,-0.229462 0.038243,-0.344192c0,-0.114731 0,-0.191218 0,-0.229462l0,-0.038243" id="svg_5" stroke-width="1.5" stroke="#68c6db" fill="none"/>
  <path d="m8.888818,12.443078c-0.191217,-0.114731 -0.267705,-0.114731 -0.344192,-0.114731c-0.076488,0 -0.114731,0 -0.191217,0c-0.038244,0 -0.191218,-0.114731 -0.267705,-0.191217l-0.038244,-0.038243l-0.038243,0" id="svg_6" stroke-width="1.5" stroke="#68c6db" fill="none"/>
  <path id="svg_1" fill="#1D1D1B" d="m24.96289,10.24121c-0.08789,-0.27148 -0.32226,-0.46973 -0.60547,-0.51074l-7.38281,-1.07324l-3.30176,-6.69434c-0.2539,-0.51172 -1.0918,-0.51172 -1.3457,0l-3.30176,6.69434l-7.38281,1.07324c-0.2832,0.04101 -0.51758,0.23926 -0.60547,0.51074c-0.08887,0.27149 -0.01465,0.56934 0.18945,0.76856l5.34278,5.21093l-1.26172,7.35743c-0.04785,0.28125 0.06738,0.5664 0.29883,0.73339c0.22949,0.16895 0.53515,0.18946 0.79003,0.05762l6.60352,-3.47363l6.60352,3.47363c0.11035,0.05762 0.23046,0.08594 0.34961,0.08594c0.00683,0.00097 0.01464,0.00097 0.01953,0c0.41504,0 0.75,-0.33594 0.75,-0.75c0,-0.10352 -0.02051,-0.20313 -0.0586,-0.29297l-1.2334,-7.19141l5.34278,-5.21093c0.2041,-0.19922 0.27832,-0.49707 0.18945,-0.76856zm-6.86133,5.18067c-0.17676,0.17285 -0.25781,0.42089 -0.21582,0.66406l1.07129,6.24804l-5.60742,-2.95019c-0.10938,-0.05762 -0.22949,-0.08594 -0.34961,-0.08594s-0.24023,0.02832 -0.34961,0.08594l-5.60742,2.95019l1.07129,-6.24804c0.04199,-0.24317 -0.03906,-0.49121 -0.21582,-0.66406l-4.53711,-4.42579l6.26953,-0.91113c0.24512,-0.03516 0.45605,-0.18945 0.56543,-0.41016l2.80371,-5.68457l2.80371,5.68457c0.10938,0.22071 0.32031,0.375 0.56543,0.41016l6.26953,0.91113l-4.53711,4.42579z"/>
 </g>
</svg>