<svg width="24" height="24" xmlns="http://www.w3.org/2000/svg">

 <g>
  <title>background</title>
  <rect fill="none" id="canvas_background" height="402" width="582" y="-1" x="-1"/>
 </g>
 <g>
  <title>Layer 1</title>
  <path d="m10.475271,12.582853c0,0.03546 -0.03538,0.492895 -0.070917,1.028306c-0.004697,0.070762 0.046559,0.109012 0.106376,0.070917c0.495073,-0.315294 0.520114,-1.350563 0.780094,-2.304822c0.135713,-0.498133 0.195367,-0.605515 0.070918,0.248212c-0.123712,0.848664 -0.177173,1.48487 -0.212753,1.914775c-0.011699,0.141352 0.008391,0.210757 0.070918,0.177294c0.225441,-0.120652 0.248211,-0.85101 0.248211,-1.311975c0,-0.248211 0.002704,-0.283773 0,-0.319129c-0.035563,-0.46503 -0.201689,-1.095188 -0.28367,-1.666564c-0.050611,-0.352744 -0.067698,-0.751427 0,-0.992846c0.072913,-0.260016 0.181403,-0.388763 0.212753,-0.496423c0.040875,-0.14037 0.013396,-0.349673 -0.070918,-0.780094c-0.048199,-0.246055 -0.035459,-0.496423 -0.035459,-0.56734c0,-0.141836 -0.017178,-0.360153 0.070918,-0.6028c0.11918,-0.328264 0.212752,-0.567341 0.319129,-0.780094c0.035459,-0.070918 0.045844,-0.116762 0.070917,-0.141835c0.025073,-0.025073 0.021889,-0.038158 0.035459,-0.070918c0.019191,-0.046329 0.03546,-0.106377 0.070918,-0.177294c0.035459,-0.070918 0.062597,-0.111775 0.035459,-0.177294c-0.01919,-0.046329 -0.121229,-0.050311 -0.177294,-0.106376c-0.056066,-0.056065 -0.070917,-0.106376 -0.106377,-0.141835c-0.035459,-0.035459 -0.192641,0.058545 -0.390046,0.319129c-0.231602,0.305726 -0.296839,0.416526 -0.390047,0.567341c-0.166737,0.269787 -0.323155,0.493597 -0.496424,0.744635c-0.072623,0.105219 -0.095474,0.183889 -0.141835,0.248211c-0.058642,0.081361 -0.196758,0.135241 -0.248211,0.319129c-0.058118,0.207709 -0.121364,0.461811 -0.141836,0.709176c-0.01779,0.214953 -0.068219,0.341019 -0.035459,0.354589c0.046329,0.01919 0.484965,-0.475183 0.921929,-0.815553c0.380484,-0.296374 0.705337,-0.503365 0.957388,-0.638258c0.209719,-0.112238 0.425506,-0.248211 0.496423,-0.248211c0.035459,0 0.002542,0.109262 -0.319129,0.390047c-0.246285,0.21498 -0.465886,0.38335 -0.709176,0.567341c-0.181093,0.136953 0.083591,-0.111006 0.496423,-0.319129c0.441011,-0.22233 0.607967,-0.242781 0.496424,-0.141836c-0.373666,0.338162 -0.752611,0.4316 -1.063765,0.531882c-0.257027,0.082838 -0.353982,0.199991 0.070918,0.177294c0.997108,-0.053264 1.393279,-0.202367 1.418352,-0.177294c0.07522,0.07522 -0.070704,0.384214 -0.106377,0.709176c-0.042561,0.387718 0.017595,0.599529 0.035459,0.744635c0.012998,0.105579 0.070918,0.177295 0.141835,0.177295c0.070918,0 0.166387,0.020888 0.28367,-0.141835c0.231804,-0.32161 0.224823,-0.792715 0.070918,-1.276517c-0.163727,-0.514678 -0.37991,-0.823059 -0.460964,-0.921929c-0.063584,-0.077561 -0.16685,-0.154111 -0.248212,-0.212753c-0.064322,-0.046361 -0.115139,-0.057149 -0.177294,-0.106376c-0.217099,-0.171945 -0.370872,-0.477195 -0.673717,-0.815553c-0.066888,-0.074731 -0.171068,-0.109847 -0.212753,-0.177294c-0.037284,-0.060327 -0.024589,-0.087187 -0.070917,-0.106377c-0.03276,-0.013569 -0.045771,0.004291 -0.106377,0.28367c-0.126011,0.580887 -0.49557,1.462979 -0.673717,2.09207c-0.26582,0.938688 -0.4849,1.298501 -0.602799,1.489269c-0.052727,0.085314 -0.06277,0.142784 -0.070917,0.177295c-0.036433,0.154335 -0.182577,0.317248 -0.31913,0.709176c-0.110678,0.317663 -0.11734,0.348001 0.141835,-0.070918c0.646794,-1.045449 1.191227,-1.748902 1.560187,-2.198445c0.239135,-0.291364 0.32927,-0.388597 0.248212,0.141835c-0.157631,1.031502 -0.212407,1.55275 -0.248212,1.808398c-0.004918,0.035116 -0.029081,-0.038028 0.03546,-0.602799c0.048978,-0.428585 0.059425,-0.534925 -0.141836,0.248212c-0.263302,1.024545 -0.389986,1.947117 -0.425506,2.553034c-0.008301,0.141592 -0.020651,0.17557 -0.106376,-0.496424c-0.090745,-0.711345 -0.062578,-1.061563 -0.141835,-1.063764c-0.285768,-0.007932 -0.530271,1.190583 -0.815553,1.879316c-0.201725,0.487008 -0.174974,0.532627 -0.141835,0.425506c0.228878,-0.739838 0.324548,-1.524255 0.390047,-2.304822c0.038659,-0.460707 0.058125,-0.63063 -0.035459,-0.390047c-0.172462,0.443369 -0.276473,0.73554 -0.31913,0.709176c-0.095384,-0.058951 0.399087,-0.74065 0.567341,-1.134682c0.074987,-0.175611 0.131451,-0.329515 0.106377,-0.354589c-0.150439,-0.150439 -0.496424,0.03546 -0.744635,0.070918c-0.248212,0.035459 -0.354589,0.070918 -0.460964,0.070918c-0.106377,0 -0.255932,0.014126 -0.460965,0.070917c-0.199256,0.055191 -0.383041,0.192643 -0.602799,0.28367c-0.103595,0.042911 -0.350382,0.081325 -0.602799,0.177294c-0.209622,0.079699 -0.454733,0.157748 -0.709176,0.248212c-0.243229,0.086476 -0.46381,0.117395 -0.567341,0.141835c-0.077168,0.018216 -0.210554,0.088586 -0.425506,0.106377c-0.106014,0.008774 -0.212753,0 -0.248212,0c-0.177294,0 -0.248301,0.002514 -0.28367,0c-0.250101,-0.017775 -0.329515,-0.045845 -0.354588,-0.070918c-0.075219,-0.075219 -0.179191,-0.019165 -0.248211,-0.035459c-0.077168,-0.018216 -0.152111,-0.072438 -0.141835,-0.106377c0.037048,-0.122362 0.354588,-0.212752 0.390047,-0.212752c0.035459,0 -0.017721,0.247381 -0.035459,0.815553c-0.008852,0.283532 0.03893,0.490197 0.106376,0.531881c0.030163,0.018641 0.106179,-0.027845 0.390047,-0.354588c0.95432,-1.098458 1.527576,-1.688676 1.666564,-1.631105c0.327597,0.135695 -0.23036,1.69661 -0.28367,2.482117c-0.009604,0.14151 -0.028399,0.210463 0,0.035459c0.107768,-0.664096 0.381655,-1.278513 0.319129,-1.311975c-0.11272,-0.060327 -0.651605,0.570189 -0.709176,0.709176c-0.013569,0.03276 -0.18651,-0.962943 -0.319129,-1.524729c-0.059309,-0.251239 -0.14825,-0.285414 -0.212753,-0.035459c-0.23642,0.916145 -0.258192,1.457474 -0.212753,1.737481c0.017962,0.110683 0.08094,0.112415 0.141835,0c0.257248,-0.474894 0.346348,-0.891022 0.425506,-0.88647c0.41435,0.023827 0.183734,0.970972 0.319129,1.453811c0.072913,0.260016 0.126686,0.309836 0.28367,0.070917c0.38943,-0.592684 0.919685,-1.208061 1.347435,-1.595646c0.131382,-0.119045 0.172681,0.213713 0.141835,0.709176c-0.017764,0.285326 -0.063064,0.315455 0.035459,-0.319129c0.138694,-0.893323 0.223166,-1.683346 0.425506,-1.808399c0.030163,-0.018641 0.066286,0.117529 -0.31913,1.134682c-0.394324,1.040662 -0.687018,1.746267 -0.851011,2.127528c-0.062658,0.145673 -0.06268,0.217443 0.035459,0.03546c0.504359,-0.935255 0.799206,-1.528806 0.88647,-1.843858c0.029931,-0.108062 0.008749,-0.013027 -0.638258,1.347434c-0.518009,1.089217 -0.921001,1.897551 -0.992847,2.340281c-0.01136,0.070002 0.208916,-0.14441 0.638259,-0.780094c0.456898,-0.676482 0.894029,-1.326493 1.205599,-2.021152c0.247969,-0.552857 0.331098,-1.074757 0.390047,-1.17014c0.026363,-0.042658 0.062499,-0.064834 -0.141835,0.780093c-0.250743,1.036826 -0.413578,1.676623 -0.496423,1.950234c-0.022977,0.075886 0.057713,-0.296267 0.28367,-1.418352c0.183206,-0.909783 0.171043,-1.507486 0.248211,-1.48927c0.207062,0.048881 -0.205045,1.537003 -0.638258,2.978539c-0.419535,1.396021 -0.732048,2.555872 -0.921929,3.368587c-0.033262,0.142366 -0.070918,0.177294 -0.070918,0.496422c0,0.177294 0.053102,0.281038 0.070918,0.460964c0.003494,0.035288 0.031767,0.126614 0.248211,-0.248211c0.587027,-1.016579 1.033557,-2.29203 1.382894,-3.474962c0.321525,-1.088753 0.331368,-1.424628 0.390047,-1.595647c0.025732,-0.074996 0.027279,-0.166542 0.070917,-0.141835c0.381672,0.216096 -0.527416,1.576497 -1.028305,3.439505c-0.12283,0.456856 -0.30114,1.268623 -0.354588,1.808399c-0.006988,0.070572 -0.021889,0.109074 -0.035459,0.141834c-0.01919,0.046329 -0.102188,0.250792 -0.212753,0.425507c-0.068366,0.108032 -0.141835,0.177294 -0.212753,0.248211c-0.070918,0.070917 -0.107635,0.230633 -0.212753,0.390047c-0.05521,0.083729 -0.13746,0.160231 -0.106376,0.177294c0.405277,0.222475 1.105538,-0.650049 1.879316,-1.241058c0.339324,-0.259174 0.543134,-0.5429 0.851011,-0.673717c0.269114,-0.114347 0.520078,-0.175297 0.780093,-0.248211c0.24142,-0.067699 0.592257,-0.143215 1.276517,-0.31913c0.350223,-0.090036 0.59655,-0.194536 0.673717,-0.212753c0.034511,-0.008146 -0.001858,0.067509 -1.241057,0.744637c-0.710247,0.388096 -1.026649,0.640808 -1.134682,0.709175c-0.174714,0.110565 -0.278409,0.141663 -0.638259,0.177294c-0.247004,0.024458 -0.487563,0.125433 -0.602799,0.03546c-0.139744,-0.109108 0.429947,-1.391171 0.567341,-1.843859c0.319408,-1.05239 0.572605,-2.333339 0.673717,-3.049457c0.059695,-0.422787 0.078597,-0.784967 0.141835,-1.063764c0.049608,-0.218706 0.079272,-0.281207 -0.070918,0.212752c-0.335994,1.105049 -0.812131,2.33417 -0.992846,3.368587c-0.0863,0.493982 -0.056231,0.659029 -0.106377,0.709175c-0.025073,0.025072 -0.056807,-0.53352 0.03546,-1.595645c0.086416,-0.994782 0.186509,-1.636661 0.319129,-2.198446c0.118619,-0.502477 0.159431,-0.599529 0.177294,-0.744635c0.008665,-0.070386 -0.078424,-0.131699 -0.177294,-0.212752c-0.077561,-0.063585 -0.106377,-0.177294 -0.177295,-0.248212c-0.070918,-0.070918 -0.131698,-0.113882 -0.212752,-0.212753c-0.063584,-0.077559 -0.111493,-0.1395 -0.141835,-0.212752c-0.042911,-0.103596 -0.052701,-0.135586 -0.070917,-0.212753c-0.016294,-0.06902 -0.053144,-0.210863 -0.070918,-0.460964c-0.007541,-0.106109 0.035459,-0.212752 0,-0.212752c-0.390046,0 0.155833,1.665133 0.177294,3.26221c0.027161,2.02128 0.160987,3.116163 0.354589,4.042303c0.118112,0.565014 0.159431,0.847742 0.177294,0.992846c0.004333,0.035194 0.016294,0.179193 0,0.248213c-0.018216,0.077168 -0.043777,0.147234 -0.070917,0.212753c-0.019191,0.046329 -0.070918,0.035458 -0.177295,0.035458c-0.070917,0 -0.28367,-0.28367 -0.390046,-0.531881c-0.106377,-0.248213 -0.176949,-0.488987 -0.212753,-0.744635c-0.02459,-0.175581 0,-0.248213 0,-0.31913c0,-0.03546 -0.070918,-0.248211 -0.070918,-0.460964c0,-0.31913 -0.01357,-0.57004 0,-0.6028c0.019191,-0.046329 -0.035285,0.313868 -0.070917,0.673717c-0.010482,0.10586 0.000392,0.162249 0.531882,0.141836c0.923971,-0.035484 1.787726,-0.062908 2.517575,0.141834c0.291699,0.081829 0.460963,0.177296 0.602799,0.248213c0.070917,0.035458 0.177294,0.106377 0.28367,0.177294c0.106377,0.070917 0.313296,0.17708 0.638258,0.212751c0.281977,0.030952 0.531882,0.070919 0.638259,0.070919c0.035459,0 0.284498,-0.007479 0.638258,0.035458c0.248905,0.03021 0.354588,0.03546 0.425506,0.070919c0.070918,0.03546 0.248212,0.141834 0.390047,0.212751c0.141835,0.070919 0.392628,0.13765 0.567341,0.248213c0.108033,0.068367 0.212753,0.106377 0.28367,0.177294c0.070917,0.070917 0.08145,0.163599 0.177294,0.248211c0.059441,0.052473 0.122646,0.060047 0.141836,0.106377c0.013571,0.032761 0.031523,0.07649 -0.070919,0c-0.221907,-0.165691 -0.515841,-0.373018 -0.815552,-0.992846c-0.209951,-0.434196 -0.265615,-0.777054 -0.319129,-1.134682c-0.052736,-0.352434 -0.111625,-0.602108 -0.141835,-0.851012c-0.042937,-0.35376 -0.038331,-0.571135 -0.070918,-0.709176c-0.036433,-0.154334 -0.126571,-0.359303 -0.177294,-0.496423c-0.027509,-0.074364 -0.070918,-0.248212 -0.106377,-0.390047c-0.035459,-0.141835 0.005459,-0.225433 0.28367,0.744635c0.291628,1.016847 0.392441,1.815251 0.496424,2.233905c0.054058,0.217649 0.070917,0.248211 0.070917,0.31913c0,0.141834 0,0.28367 0,0.390045c0,0.106377 -0.077055,0.24299 -0.106377,0.28367c-0.046362,0.064323 -0.044882,0.142673 -0.106376,-0.602798c-0.125652,-1.523262 -0.18472,-2.984292 -0.28367,-3.723174c-0.043392,-0.324022 -0.134383,-0.64104 -0.177294,-0.744636c-0.060685,-0.146506 -0.106377,-0.390046 -0.177295,-0.602799c-0.070917,-0.212752 -0.136459,-0.462564 -0.212752,-0.709176c-0.066279,-0.214243 -0.177294,-0.425506 -0.177294,-0.460964c0,-0.03546 -0.08778,-0.127407 -0.141836,-0.425506c-0.01898,-0.10467 -0.035459,-0.425506 -0.106376,-0.780094c-0.035459,-0.177294 -0.046478,-0.251057 -0.070918,-0.354588c-0.018216,-0.077168 -0.019165,-0.143732 -0.035459,-0.212753c-0.05465,-0.231502 -0.194791,-0.4212 -0.212752,-0.531881c-0.00568,-0.035002 0,-0.106377 -0.03546,-0.177295c-0.035459,-0.070917 -0.069502,-0.106348 -0.070917,-0.070917c-0.035487,0.888594 -0.004522,1.943457 0.28367,3.333127c0.278215,1.341561 0.348943,2.376936 0.531881,3.226751c0.068798,0.319592 0.171017,0.555104 0.248212,0.780093c0.058678,0.171019 0.073096,0.389746 0.106377,0.63826c0.037945,0.283346 0.125489,0.642336 0.212753,0.957386c0.029931,0.108063 0.035459,0.177294 0.035459,0.212753c0,0.03546 0.014562,0.109932 -0.035459,0.106377c-0.176849,-0.012568 -0.586331,-0.877604 -0.992846,-1.77294c-0.446569,-0.983554 -0.691066,-1.663584 -0.780094,-2.233905c-0.088184,-0.564915 -0.190783,-0.989416 -0.28367,-1.382894c-0.083081,-0.351936 -0.161301,-0.73804 -0.212753,-0.921928c-0.058119,-0.20771 -0.09516,-0.464251 -0.141834,-0.6028c-0.086211,-0.255915 -0.177295,-0.460964 -0.248212,-0.602799c-0.106377,-0.212752 -0.169988,-0.286771 -0.248212,-0.460964c-0.064961,-0.14466 -0.143766,-0.28291 -0.212753,-0.460965c-0.109452,-0.282496 -0.227346,-0.510748 -0.354588,-0.673717c-0.061721,-0.079051 -0.08362,-0.096078 0.177294,0.212752c0.372519,0.440931 0.784149,0.990066 1.099223,1.453812c0.215543,0.31725 0.338645,0.554617 0.425506,0.709175c0.093553,0.166465 0.102533,0.363474 0.177294,0.6028c0.047282,0.151363 0.106377,0.460964 0.106377,0.709176c0,0.248212 0,0.496423 0,0.744635c0,0.212752 0,0.602799 0,0.851011c0,0.212753 -0.070266,0.379835 -0.106377,0.567341c-0.006705,0.034819 -0.014447,0.174446 -0.035459,0.319129c-0.117317,0.80785 0.123619,1.802149 0.141835,1.879316c0.008147,0.034512 0.068219,0.092808 0.035459,0.106377c-0.092658,0.03838 -0.46314,-0.277452 -0.673717,-0.354588c-0.1793,-0.06568 -0.489673,-0.161953 -0.780093,-0.248213c-0.313382,-0.093081 -0.56109,-0.229994 -0.638258,-0.248211c-0.034511,-0.008146 -0.106377,0 -0.141835,0c-0.070918,0 -0.135133,-0.04377 -0.177295,-0.070917c-0.254724,-0.164015 -0.485979,-0.225029 -0.567341,-0.28367c-0.064322,-0.046361 -0.146233,-0.046133 -0.070917,-0.070918c0.786312,-0.258759 1.384377,-0.237878 1.666564,-0.28367c0.178471,-0.028961 0.219348,-0.060016 0.283669,-0.106377c0.081362,-0.058642 0.248212,-0.141835 0.390047,-0.212752c0.070918,-0.035459 0.107939,-0.063482 -0.212752,0c-0.812037,0.160748 -1.74068,0.379296 -2.233905,0.531882c-0.321364,0.099419 -0.425506,0.177295 -0.460964,0.177295c-0.03546,0 -0.142784,0.062771 -0.177294,0.070917c-0.077168,0.018215 -0.12491,0.018532 0.070917,-0.177295c0.391655,-0.391655 0.852871,-0.704616 1.311975,-1.17014c0.388927,-0.394365 0.724766,-0.901938 0.921929,-1.134682c0.064826,-0.076525 0.121228,-0.08577 0.177294,-0.141835c0.056066,-0.056066 0.124789,-0.055252 0.212752,-0.177294c0.046361,-0.064322 0.06589,-0.106555 0.070918,-0.177295c0.017774,-0.2501 -0.030068,-0.499249 -0.106377,-0.638258c-0.099494,-0.181245 -0.237767,-0.331405 -0.319129,-0.390047c-0.064322,-0.04636 -0.173386,-0.214774 -0.248212,-0.354588c-0.134894,-0.252051 -0.209831,-0.297389 -0.248211,-0.390047c-0.027139,-0.065519 -0.207911,0.235183 -0.6028,1.205599c-0.38481,0.945645 -0.678329,1.725495 -0.851011,2.37574c-0.046407,0.174747 -0.106376,0.248212 -0.106376,0.28367c0,0.070918 -0.052957,0.172988 -0.070918,0.28367c-0.00568,0.035001 0.141153,-0.248841 0.567341,-0.709176c0.460229,-0.497105 1.067348,-0.885562 1.560187,-1.453811c0.116163,-0.133938 0.194856,-0.188679 0.212753,-0.141835c0.228151,0.597142 -0.181455,1.275425 -0.31913,1.808399c-0.036566,0.141554 -0.093672,0.161843 0.177295,-0.212753c0.29537,-0.408333 0.361717,-0.46024 0.354588,-0.425506c-0.054297,0.264531 -0.212029,0.489294 -0.177294,0.496424c0.264531,0.054296 0.332233,-0.646603 0.460964,-0.957388c0.060684,-0.146505 0.11307,-0.162568 0.141835,-0.141835c0.181931,0.131128 0.187825,0.48273 0.28367,0.567341c0.059441,0.052473 0.141835,0.035459 0.177294,0.035459c0.070918,0 0.141835,-0.070916 0.212753,-0.106376c0.070917,-0.035459 0.534228,-0.018125 1.382894,-0.141835c0.640295,-0.093336 1.053552,-0.247561 1.241057,-0.28367c0.069637,-0.013411 0.081303,-0.010386 0.106377,-0.03546c0.025072,-0.025073 0.030209,-0.079015 0.070917,-0.177294c0.01919,-0.046329 0.011969,-0.117369 0.070919,-0.212753c0.026363,-0.042656 0.083193,-0.131391 0.141834,-0.212752c0.09272,-0.128644 0.141836,-0.248212 0.212753,-0.319129c0.106377,-0.106377 0.156689,-0.192147 0.212753,-0.248212c0.056065,-0.056065 0.14934,-0.096239 0.248211,-0.177294c0.07756,-0.063584 0.141834,-0.177294 0.177294,-0.212753c0.070917,-0.070917 0.141834,-0.141834 0.212753,-0.212752c0.248213,-0.24821 0.28367,-0.28367 0.354588,-0.354589c0.070917,-0.070917 0.147972,-0.136613 0.177294,-0.177294c0.092722,-0.128643 0.110043,-0.209431 0.141836,-0.248212c0.081055,-0.098871 0.106375,-0.177294 0.141834,-0.212752c0.03546,-0.035459 0.070917,-0.035459 0.106377,-0.070918c0.070917,-0.070917 0.077663,-0.173093 0.141834,-0.28367c0.079594,-0.137155 0.083433,-0.201197 -0.035458,-0.248211c-0.40115,-0.158632 -1.16847,-0.156187 -2.021152,-0.248212c-0.778788,-0.084049 -1.20838,-0.134383 -1.311975,-0.177294c-0.146506,-0.060685 -0.357793,-0.066618 -0.602799,-0.106377c-0.110682,-0.017962 -0.177294,-0.035459 -0.248212,-0.070918c-0.070917,-0.035459 -0.183889,-0.095475 -0.248211,-0.141835c-0.081362,-0.058641 -0.188287,-0.118344 -0.28367,-0.177294c-0.085314,-0.052727 -0.141836,-0.141835 -0.248212,-0.212752c-0.106377,-0.070918 -0.177295,-0.141835 -0.248212,-0.177295c-0.070917,-0.035459 -0.135193,-0.149168 -0.212753,-0.212752c-0.09887,-0.081055 -0.183889,-0.130934 -0.248211,-0.177294c-0.040682,-0.029322 -0.070918,-0.070918 -0.106377,-0.070918c-0.035459,0 -0.047823,0.354897 -0.035459,0.602799c0.017752,0.355915 0.119543,0.558361 0.212752,0.709176c0.083369,0.134893 0.181533,0.311043 0.390047,0.425506c0.181246,0.099494 0.205316,0.14149 0.460964,0.177295c0.245812,0.034428 0.638259,0 1.028306,0c0.425505,0 0.533778,-0.016294 0.602799,0c0.077167,0.018216 0.131623,0.105724 0.319129,0.141835c0.034819,0.006705 0.173093,0.042206 0.283669,0.106376c0.137156,0.079595 0.31913,0.141835 0.354589,0.177295c0.035458,0.035459 0.106987,0.068559 0.248211,0.106376c0.249359,0.066773 0.308918,0.105725 0.496424,0.141835c0.069637,0.013411 0.106377,0 0.177294,0c0.03546,0 0.113884,0.010139 0.212753,-0.070917c0.03878,-0.031793 0.038157,-0.057348 0.070917,-0.070918c0.046329,-0.01919 0.100126,-0.052701 0.177294,-0.070917c0.034512,-0.008147 -0.212337,-0.038963 -0.496424,-0.070918c-0.354122,-0.039833 -1.052074,-0.194453 -1.418351,-0.248211c-0.35083,-0.051491 -0.744636,-0.03546 -1.099223,-0.03546c-0.177294,0 -0.297664,-0.018569 -0.531882,0.070918c-0.119428,0.04563 -0.166424,0.087186 -0.212752,0.106376c-0.032761,0.01357 0.812395,0.135733 1.666563,0.212753c0.636662,0.057407 1.015705,0.050069 1.028305,0.177294c0.004942,0.049902 -0.95667,0.180696 -1.453811,0.28367c-0.354094,0.073344 -0.572636,0.123193 -0.602799,0.141835c-0.067447,0.041685 -0.102901,0.130487 -0.035459,0.212753c0.114629,0.139824 0.70941,0.041895 1.772941,0c0.780293,-0.030738 1.131758,-0.106256 1.134682,-0.070918c0.03558,0.429906 -0.747734,0.169989 -0.921928,0.248212c-0.07233,0.032481 -0.110573,0.018726 -0.141836,0.035459c-0.11272,0.060327 -0.106375,0.141835 -0.141834,0.212753c-0.03546,0.070918 -0.096102,0.143356 -0.106377,0.177294c-0.037048,0.122364 -0.14917,0.135192 -0.212753,0.212752c-0.081055,0.098871 -0.095933,0.154112 -0.177294,0.212753c-0.064322,0.046361 -0.145503,0.103055 -0.177295,0.141835c-0.081055,0.098871 -0.141834,0.177295 -0.212752,0.248212c-0.03546,0.035459 -0.082149,0.209009 -0.177295,0.177294c-0.237865,-0.079288 -0.106376,-0.673717 -0.212752,-1.028305l0,-0.070918l-0.035459,0l0,-0.035459" id="svg_11" fill-opacity="null" stroke-width="NaN" stroke="#47a8bd" fill="none"/>
  <path fill="#000" id="svg_1" d="m6.135459,21.909082a1,1 0 0 1 -1.45,-1.06l1.03,-6.03l-4.38,-4.26a1,1 0 0 1 0.56,-1.71l6.05,-0.88l2.7,-5.48a1,1 0 0 1 1.8,0l2.7,5.48l6.06,0.88a1,1 0 0 1 0.55,1.7l-4.38,4.27l1.04,6.03a1,1 0 0 1 -1.46,1.06l-5.4,-2.85l-5.42,2.85zm4.95,-4.87a1,1 0 0 1 0.93,0l4.08,2.15l-0.78,-4.55a1,1 0 0 1 0.29,-0.88l3.3,-3.22l-4.56,-0.67a1,1 0 0 1 -0.76,-0.54l-2.04,-4.14l-2.04,4.14a1,1 0 0 1 -0.75,0.54l-4.57,0.67l3.3,3.22a1,1 0 0 1 0.3,0.88l-0.79,4.55l4.09,-2.15z" class="heroicon-ui"/>
  <path d="m12.106377,8.54055c-0.035459,0 -0.070918,0 -0.106377,0.035459c-0.035459,0.035459 -0.106377,0.035459 -0.177294,0.035459c-0.070918,0 -0.000001,-0.141834 -0.070918,-0.141834c-0.070917,0 -0.070917,0.212752 -0.070917,0.248211l0,0.03546l0,0.035459" id="svg_12" fill-opacity="null" stroke-width="NaN" stroke="#47a8bd" fill="none"/>
  <path d="m11.11353,7.228575c0.070917,0.070918 0.333486,0.558568 0.567341,0.957388c0.26482,0.451628 0.337426,0.666934 0.460964,1.028305c0.083504,0.244266 0.106377,0.390047 0.141835,0.460964l0,0.035459" id="svg_13" fill-opacity="null" stroke-width="NaN" stroke="#47a8bd" fill="none"/>
 </g>
</svg>